     <svg
              xmlns="http://www.w3.org/2000/svg"
              id="Layer_1"
              data-name="Layer 1"
              viewBox="0 0 32 32"
            >
              <defs>
                <style>
                  .cls-1 {
                    fill: #086ad8;
                    stroke-width: 0px;
                  }
                </style>
              </defs>
              <path
                class="cls-1"
                d="M3.77.63c-1.02.27-1.74,1.09-1.93,2.14-.11.61.09,1.39.48,1.92.09.13.09.14-.3.34-.52.26-1.19.94-1.46,1.49-.34.68-.4,1.1-.38,2.4l.02,1.15.2.18.2.18h7.64l.2-.18.2-.18v-1.36c0-1.32,0-1.37-.17-1.78-.34-.83-.97-1.58-1.68-1.92l-.35-.18.16-.24c.98-1.48.22-3.49-1.5-3.94-.43-.12-.94-.12-1.33-.01ZM5.16,1.65c.61.31,1.02,1.05.93,1.68-.13.86-.81,1.45-1.69,1.45-.93,0-1.66-.71-1.65-1.63,0-.48.11-.76.43-1.12.23-.25.46-.4.77-.5.27-.09.94-.02,1.21.12ZM3.74,5.65c.29.09,1.15.07,1.45-.03.24-.08.31-.09.6,0,.77.2,1.33.66,1.68,1.38l.24.47.02,1.01.02,1.01H1.1v-.83c0-1.24.17-1.78.77-2.38.18-.17.44-.38.58-.45.33-.17.88-.32,1.01-.27.05.02.18.06.28.09Z"
              ></path>
              <path
                class="cls-1"
                d="M13.64.63c-.73.21-1.35.72-1.68,1.39-.2.4-.21.45-.21,1.1s.02.72.18,1.07c.1.22.22.42.26.46.14.12.11.16-.3.38-.5.26-1.14.9-1.4,1.38-.34.66-.4.95-.43,2.18-.04,1.24,0,1.49.27,1.7.16.12.24.12,3.94.12,4.1,0,4.04,0,4.2-.34.12-.25.1-2.39-.02-2.85-.25-.96-1.11-1.99-1.96-2.34l-.17-.07.19-.28c.89-1.32.27-3.23-1.24-3.81-.45-.17-1.24-.22-1.63-.1ZM15.13,1.7c.59.32.92.94.85,1.6-.14,1.4-1.84,1.98-2.87.99-.33-.32-.47-.65-.47-1.14,0-.71.43-1.34,1.08-1.58.4-.15,1-.09,1.4.12ZM13.52,5.61c.34.12,1.17.13,1.55.01.73-.23,1.86.43,2.32,1.37.2.4.2.42.22,1.45l.02,1.04h-6.65v-.73c0-.4.03-.9.07-1.1.18-.97.93-1.79,1.87-2.04.18-.05.34-.09.34-.09,0,0,.13.04.28.09Z"
              ></path>
              <path
                class="cls-1"
                d="M23.51.64c-1.4.37-2.23,1.86-1.81,3.23.07.24.22.54.32.68l.18.25-.26.12c-.89.44-1.61,1.33-1.87,2.3-.12.45-.13,2.59-.02,2.84.16.35.09.34,4.2.34,3.7,0,3.79,0,3.94-.12.27-.21.31-.47.27-1.7-.02-.81-.06-1.22-.14-1.46-.26-.85-.95-1.71-1.69-2.1-.4-.22-.44-.26-.3-.38.04-.04.16-.24.26-.46.16-.35.18-.45.18-1.07s-.01-.71-.17-1.04c-.58-1.18-1.85-1.77-3.09-1.44ZM24.77,1.57c.4.14.81.51.97.9s.16,1.01-.03,1.38c-.47.97-1.79,1.24-2.61.52-.35-.31-.53-.65-.56-1.1-.11-1.19,1.07-2.09,2.23-1.69ZM24.22,5.71c.29,0,.61-.04.75-.09.68-.25,1.84.45,2.27,1.35.24.5.3.91.3,1.78v.74h-6.65l.02-1.04c.02-.97.03-1.06.19-1.4.45-.95,1.61-1.66,2.35-1.42.16.04.5.09.78.09Z"
              ></path>
              <path
                class="cls-1"
                d="M23.23,11.16c-2.02.27-3.88,1.35-5.09,2.97-.4.53-.94,1.5-1.09,1.94-.04.13-.08.24-.09.24s-.16-.07-.34-.16l-.32-.16.19-.25c.11-.14.24-.43.31-.66.4-1.31-.3-2.72-1.59-3.19-.52-.19-1.35-.19-1.83,0-.72.29-1.32.91-1.56,1.62-.11.32-.13.5-.11.94.02.48.06.6.27,1.04.13.27.25.5.26.52.01.02-.05.06-.13.07-.3.08-1.02.66-1.34,1.08-.61.81-.77,1.48-.74,3.02.02.86.03.98.15,1.14.24.32.3.32,3.75.32h3.2s.27.55.27.55l.27.53-2.95,2.95c-2.02,2.02-2.99,3.04-3.09,3.23-.2.39-.2,1.09,0,1.5.42.87,1.38,1.25,2.29.92.34-.12.55-.32,3.34-3.1l2.98-2.97.53.27c.61.32,1.25.53,1.99.69.63.14,2.11.15,2.73.03,3.27-.62,5.75-3.17,6.24-6.4.36-2.4-.43-4.75-2.17-6.49-1.1-1.11-2.36-1.79-3.89-2.1-.58-.12-1.87-.17-2.45-.09ZM25.2,12.12c1.81.27,3.49,1.33,4.51,2.83.38.56.79,1.46.97,2.15.14.54.16.73.16,1.63s-.02,1.09-.16,1.63c-1.16,4.34-5.99,6.36-9.88,4.13-.29-.17-.61-.3-.7-.3-.14,0-.71.55-3.28,3.1-1.71,1.7-3.17,3.13-3.24,3.17-.41.2-.99-.06-1.14-.53-.17-.51-.25-.41,3.15-3.81,3.49-3.51,3.3-3.25,2.93-3.82-.51-.8-.87-1.85-.99-2.91-.27-2.38.9-4.85,2.95-6.23.88-.59,1.75-.91,3.01-1.1.37-.06,1.13-.03,1.69.06ZM15.01,12.82c.37.16.66.47.85.88.27.6.12,1.32-.4,1.82-.79.77-2.12.55-2.64-.45-.16-.3-.17-.39-.16-.81.01-.39.05-.52.2-.78.2-.32.64-.66.99-.77.28-.09.84-.03,1.16.11ZM13.77,16.85c.42.09.53.09.9.02.74-.15,1.06-.12,1.55.12l.43.22v.28c-.07,1.11-.04,2.19.06,2.64.06.27.1.52.1.55,0,.02-1.3.04-2.9.03l-2.91-.02-.02-.73c-.02-1.17.15-1.8.68-2.37.34-.37.55-.52.98-.69.42-.17.52-.18,1.14-.04Z"
              ></path>
              <path
                class="cls-1"
                d="M23.38,12.9c-.93.13-1.99.57-2.72,1.14-1.52,1.17-2.34,2.83-2.33,4.72,0,1.56.54,2.88,1.63,4.02,2.13,2.23,5.52,2.44,7.94.5.94-.75,1.71-1.97,2.01-3.16.19-.79.19-2.01,0-2.79-.15-.6-.5-1.41-.83-1.88-.81-1.19-2.11-2.11-3.47-2.44-.61-.14-1.65-.2-2.23-.12ZM25.46,13.95c.91.25,1.6.66,2.26,1.33.78.79,1.24,1.76,1.38,2.87.16,1.26-.24,2.69-1.02,3.64l-.15.18-.2-.31c-.26-.4-.9-1-1.27-1.18-.16-.08-.29-.16-.29-.18s.05-.11.12-.19c.35-.5.49-1.22.35-1.87-.17-.79-.65-1.4-1.38-1.75-1.58-.75-3.45.34-3.54,2.06-.03.59.06,1,.33,1.45l.2.34-.32.14c-.37.17-1.21.98-1.33,1.28-.04.11-.11.2-.13.2s-.16-.16-.29-.36c-.63-.89-.9-1.75-.91-2.84,0-.86.1-1.35.43-2.07.67-1.46,2.03-2.54,3.61-2.84.61-.12,1.57-.07,2.16.09ZM24.84,17.33c.41.19.74.56.86.97.12.4.12.45,0,.86-.2.69-.89,1.17-1.61,1.11-.86-.07-1.46-.7-1.46-1.54,0-1.14,1.18-1.89,2.2-1.4ZM23.53,21.12c.4.12.92.12,1.34,0,.37-.11.68-.06,1.14.17.58.29,1.27,1.17,1.12,1.41-.11.17-1.15.68-1.67.83-.65.17-1.78.19-2.41.02-.45-.11-1.43-.56-1.71-.78l-.16-.12.14-.28c.27-.55.78-1,1.39-1.22.41-.14.44-.15.83-.03Z"
              ></path>
              <path
                class="cls-1"
                d="M3.77,11.82c-.49.13-.9.37-1.25.75-.83.87-.95,2.13-.3,3.14l.18.29-.38.2c-.57.3-1.15.91-1.45,1.52-.34.66-.4,1.12-.38,2.43.02,1.02.02,1.06.17,1.22.09.09.25.19.37.22.3.09,7.1.08,7.41,0,.12-.04.3-.16.39-.26l.17-.2-.02-1.27c-.02-1.13-.04-1.32-.16-1.67-.3-.85-.92-1.58-1.68-1.99l-.38-.2.16-.24c.37-.56.52-1.29.4-1.9-.3-1.48-1.8-2.43-3.22-2.04ZM4.95,12.75c.63.19,1.18.92,1.18,1.58,0,.56-.43,1.24-.97,1.5-.43.2-1.06.2-1.48-.02-.6-.31-.91-.81-.91-1.48,0-.51.17-.89.56-1.24.47-.41,1.01-.52,1.63-.34ZM4.02,16.87c.34.06.49.06.81,0,.62-.12,1.03-.11,1.42.09.68.32,1.14.87,1.37,1.6.09.3.12.57.12,1.27v.89H1.09l.02-1.01c.02-.84.05-1.06.16-1.33.27-.69.88-1.28,1.57-1.53.3-.11.52-.1,1.19.02Z"
              ></path>
            </svg>