   <svg
              xmlns="http://www.w3.org/2000/svg"
              id="Layer_1"
              data-name="Layer 1"
              viewBox="0 0 32 32"
            >
              <defs>
                <style>
                  .cls-1 {
                    fill: #086ad8;
                    stroke-width: 0px;
                  }
                </style>
              </defs>
              <path
                class="cls-1"
                d="M3.33.38C1.91.73.66,2,.37,3.42c-.1.51-.1,24.62,0,25.13.23,1.12,1.09,2.22,2.14,2.72.31.14.73.3.93.34.25.05,2.37.08,6.63.08h6.26l.23-.16c.33-.22.49-.47.53-.82.05-.4-.16-.81-.51-1.02l-.26-.16-6.28-.03c-5.89-.03-6.29-.04-6.52-.16-.32-.16-.71-.54-.86-.86-.12-.23-.12-.8-.12-12.49s0-12.26.12-12.49c.16-.32.54-.71.86-.86.23-.12.62-.12,6.54-.14h6.29s.02,2.61.02,2.61c.02,2.54.03,2.64.18,3.02.2.49.51.88.94,1.19.6.43.73.44,3.62.44h2.59v2.5c0,2.36,0,2.52.14,2.77.39.78,1.53.78,1.92,0,.13-.25.14-.41.14-3.17,0-3.18-.01-3.33-.41-3.96-.11-.17-1.75-1.86-3.65-3.75-2.98-2.97-3.51-3.46-3.86-3.64l-.41-.2h-6.93c-5.45-.02-7,0-7.29.06ZM20.39,5.8l1.75,1.75h-1.69c-1.67,0-1.69,0-1.8-.15-.09-.13-.11-.42-.11-1.75,0-.88.02-1.6.05-1.6.03,0,.84.79,1.8,1.75Z"
              ></path>
              <path
                class="cls-1"
                d="M6.78,12.79c-.64.28-.85,1.15-.4,1.69.36.43.07.4,6.71.4,5.91,0,6.08,0,6.34-.14.78-.39.78-1.53,0-1.92-.25-.13-.43-.14-6.35-.14-4.91,0-6.13.02-6.3.1Z"
              ></path>
              <path
                class="cls-1"
                d="M23.35,16.82c-.7.12-.95.41-1.41,1.64-.1.25-.18.34-.42.47-.29.16-.33.16-.91.08-1.24-.16-1.43-.1-2.02.71-.49.67-1.08,1.84-1.12,2.26-.05.45,0,.58.53,1.27.45.58.48.66.48.97s-.03.38-.48.97c-.53.69-.58.82-.53,1.27.08.73,1.28,2.69,1.79,2.94.27.13.54.14,1.36.03.58-.08.62-.08.91.08.27.15.32.21.59.87.49,1.2.66,1.29,2.47,1.29s1.98-.09,2.46-1.26c.26-.62.34-.73.58-.88l.27-.17.77.08c.96.11,1.2.07,1.54-.27.58-.58,1.43-2.12,1.5-2.71.05-.45,0-.56-.53-1.28-.43-.58-.48-.67-.48-.96s.05-.38.48-.96c.54-.71.58-.82.53-1.28-.05-.42-.69-1.7-1.16-2.31-.57-.73-.78-.8-1.99-.65-.58.08-.62.08-.9-.08-.27-.14-.32-.21-.6-.88-.32-.79-.54-1.06-.95-1.18-.34-.1-2.28-.14-2.75-.05ZM25.3,19.56c.28.67.47.91.86,1.07.13.05.44.23.69.39.49.32.71.35,1.65.23l.45-.05.23.38.22.39-.38.49c-.21.27-.4.56-.45.64-.1.2-.1,2.04,0,2.24.05.08.25.37.45.64l.38.49-.22.39-.23.38-.45-.05c-.93-.12-1.17-.09-1.65.23-.25.16-.6.35-.78.43-.36.17-.5.37-.84,1.18l-.19.47h-.93l-.19-.46c-.32-.8-.47-1.02-.87-1.21-.2-.1-.54-.28-.74-.41-.47-.31-.7-.35-1.34-.25-.77.11-.75.12-.99-.3l-.22-.38.38-.5c.21-.27.41-.56.45-.65.11-.21.11-2.01,0-2.22-.04-.09-.25-.38-.45-.65l-.38-.5.22-.38c.24-.42.22-.41.99-.3.64.1.88.05,1.34-.25.21-.13.54-.32.74-.41.4-.19.56-.42.87-1.21l.19-.46h.93l.26.62Z"
              ></path>
              <path
                class="cls-1"
                d="M24.06,22.09c-.33.08-.91.43-1.1.64-.1.12-.25.36-.36.56-.15.29-.18.44-.18.93,0,.54.01.62.23,1.02.26.48.48.69.99.96.3.15.43.18.93.18.47,0,.64-.03.93-.16.44-.21.85-.62,1.06-1.06.24-.49.24-1.36,0-1.85-.22-.44-.63-.85-1.06-1.06-.37-.18-1.07-.25-1.45-.15Z"
              ></path>
              <path
                class="cls-1"
                d="M6.67,17.99c-.33.23-.49.48-.53.82-.05.4.16.81.51,1.02l.26.16h7.2l.26-.16c.35-.21.56-.62.51-1.02-.03-.34-.2-.6-.53-.82l-.23-.15h-7.23l-.23.15Z"
              ></path>
              <path
                class="cls-1"
                d="M6.86,23.01c-.34.12-.44.22-.61.55-.25.5-.09,1.05.43,1.39l.23.16h7.23l.23-.15c.33-.23.49-.48.53-.82.05-.4-.16-.81-.51-1.02l-.26-.16h-3.5c-2.81-.03-3.55-.01-3.76.06Z"
              ></path>
            </svg>