    <svg
              xmlns="http://www.w3.org/2000/svg"
              id="Layer_1"
              data-name="Layer 1"
              viewBox="0 0 32 32"
            >
              <defs>
                <style>
                  .cls-1 {
                    fill: #086ad8;
                    stroke-width: 0px;
                  }
                </style>
              </defs>
              <path
                class="cls-1"
                d="M1.89,4.42c-.79.14-1.41.69-1.65,1.48-.09.3-.1,1.35-.1,10.1s.01,9.8.1,10.1c.24.82.85,1.34,1.7,1.49.55.09,27.55.09,28.11,0,.85-.14,1.46-.67,1.7-1.49.09-.3.1-1.35.1-10.1s-.01-9.8-.1-10.1c-.24-.82-.85-1.34-1.7-1.49-.5-.07-27.68-.07-28.16,0ZM7.55,15.99v10.62H1.97l-.29-.17c-.2-.12-.32-.25-.41-.44l-.13-.27v-9.75c0-9.73,0-9.75.13-10.01.13-.28.43-.51.76-.59.11-.02,1.39-.04,2.86-.04h2.66v10.63ZM30.32,5.54c.2.12.32.25.41.44l.13.27v19.5l-.13.27c-.09.19-.22.32-.41.44l-.29.17-10.73.02h-10.73s0-10.64,0-10.64V5.34h10.73s10.73.03,10.73.03l.29.17Z"
              ></path>
              <path
                class="cls-1"
                d="M2.49,6.58c-.18.11-.27.4-.17.59.15.32.26.33,1.98.33s1.93-.04,2.04-.25c.11-.2.07-.48-.07-.62-.13-.12-.21-.12-1.9-.12-1,0-1.81.03-1.87.06Z"
              ></path>
              <path
                class="cls-1"
                d="M2.45,8.75c-.19.17-.22.34-.13.54.14.3.28.33,1.59.32,1.18-.02,1.2-.02,1.32-.17.16-.2.15-.51-.02-.68-.14-.13-.2-.14-1.38-.14s-1.25,0-1.37.12Z"
              ></path>
              <path
                class="cls-1"
                d="M2.49,11.9c-.28.22-.27.58,0,.79.07.06.58.07,1.87.08h1.77l.13-.14c.18-.19.18-.54,0-.7-.12-.11-.26-.12-1.88-.14-1.68-.02-1.75-.01-1.91.11Z"
              ></path>
              <path
                class="cls-1"
                d="M2.56,13.97c-.24.12-.34.38-.25.61.04.1.13.21.19.24.06.04.86.06,1.86.06,1.68,0,1.77,0,1.9-.12.14-.14.18-.42.07-.62-.11-.21-.4-.25-2.04-.25-1.15,0-1.63.02-1.74.08Z"
              ></path>
              <path
                class="cls-1"
                d="M2.43,16.17c-.19.15-.2.51,0,.71.14.13.18.14,1.73.15,1.73.02,1.94,0,2.12-.18.16-.16.15-.51,0-.68-.12-.12-.2-.12-1.91-.12s-1.8,0-1.93.12Z"
              ></path>
              <path
                class="cls-1"
                d="M2.49,18.22c-.18.11-.27.4-.17.59.15.32.24.33,2.11.32l1.73-.02.12-.15c.16-.2.15-.51-.02-.68-.14-.14-.18-.14-1.91-.14-.99,0-1.8.03-1.86.06Z"
              ></path>
              <path
                class="cls-1"
                d="M2.49,20.36c-.16.12-.24.38-.17.56.12.33.19.35,2.05.35,1.64,0,1.72,0,1.88-.13.23-.18.23-.55,0-.73-.16-.12-.24-.13-1.91-.13-1.33,0-1.77.02-1.85.09Z"
              ></path>
              <path
                class="cls-1"
                d="M2.56,23.51c-.24.12-.34.38-.25.61.04.1.13.21.19.24.06.04.66.06,1.34.06,1.21,0,1.23,0,1.36-.14.23-.24.17-.61-.12-.76-.23-.12-2.3-.13-2.53-.01Z"
              ></path>
              <path
                class="cls-1"
                d="M9.81,6.68c-.17.22-.16.41.02.63l.15.17,1.07.02c.59.01,1.16,0,1.28-.02.41-.07.58-.48.32-.8l-.12-.16h-2.59l-.12.16Z"
              ></path>
              <path
                class="cls-1"
                d="M14.08,6.64c-.19.19-.19.51,0,.71.11.11.22.12,1.22.14,1.28.02,1.53-.02,1.65-.31.09-.23.02-.51-.15-.61-.07-.04-.67-.06-1.36-.06-1.16,0-1.25,0-1.37.12Z"
              ></path>
              <path
                class="cls-1"
                d="M18.3,6.66c-.28.29-.11.74.32.82.11.02.68.03,1.28.02l1.07-.02.15-.17c.19-.22.19-.44,0-.63-.15-.15-.15-.15-1.41-.15s-1.26,0-1.39.14Z"
              ></path>
              <path
                class="cls-1"
                d="M22.56,6.64c-.19.15-.2.51,0,.71.13.13.2.14,1.21.15,1.19.02,1.42,0,1.6-.18.17-.17.15-.5-.02-.66-.14-.13-.2-.14-1.39-.14-1.12,0-1.26.01-1.39.12Z"
              ></path>
              <path
                class="cls-1"
                d="M26.79,6.66c-.14.15-.17.41-.07.6.11.2.41.25,1.51.25,1.15,0,1.31-.04,1.45-.33.1-.2.01-.5-.18-.59-.06-.04-.66-.06-1.34-.06-1.21,0-1.23,0-1.36.14Z"
              ></path>
              <path
                class="cls-1"
                d="M12.54,13.49c-1.16.31-2.17,1.46-2.29,2.6-.07.71,0,1.22.29,1.79.55,1.1,1.6,1.77,2.79,1.77.9,0,1.58-.27,2.22-.9.32-.33.38-.42.38-.6,0-.3-.18-.5-.45-.5-.19,0-.28.06-.59.35-.52.5-.83.63-1.52.63-.48,0-.61-.02-.91-.16-.42-.19-.82-.59-1.04-1.02-.14-.27-.15-.38-.15-.92s.02-.65.17-.95c.49-.92,1.52-1.38,2.5-1.1.41.12.6.24,1.06.66.36.33.53.37.79.17.12-.1.16-.18.16-.38,0-.22-.04-.28-.39-.63-.79-.77-1.96-1.09-3.01-.81Z"
              ></path>
              <path
                class="cls-1"
                d="M17.25,13.54c-.14.14-.14.15-.14,2.99v2.86l.14.13c.15.14.41.17.6.07.19-.1.25-.41.25-1.24v-.8h1.35l.63.85c.84,1.12.97,1.26,1.21,1.26.25,0,.46-.22.46-.48,0-.15-.13-.37-.53-.92-.3-.4-.53-.72-.51-.74.01,0,.21-.11.44-.21.47-.23.74-.51.97-1,.41-.89.1-1.99-.72-2.55-.51-.33-.7-.37-2.45-.37-1.56,0-1.57,0-1.7.14ZM20.66,14.47c.64.27.86,1.11.43,1.64-.33.41-.46.45-1.8.45h-1.2v-2.17h1.18c.85,0,1.24.02,1.38.09Z"
              ></path>
              <path
                class="cls-1"
                d="M23.62,13.52c-.07.07-.14.19-.15.26-.04.2-.53,5.13-.53,5.39,0,.58.84.66.95.1.02-.08.09-.74.16-1.47s.14-1.44.16-1.57c.04-.24.08-.14.74,1.52.39.97.76,1.8.81,1.83.17.13.48.1.62-.06.07-.07.44-.9.81-1.83.78-1.96.67-1.99.89.21.07.78.17,1.44.22,1.53.15.3.58.32.79.03l.12-.17-.27-2.74c-.15-1.51-.3-2.79-.33-2.86-.15-.3-.5-.37-.74-.14-.11.1-.42.82-.97,2.2-.45,1.13-.82,2.06-.84,2.06s-.38-.93-.84-2.06c-.55-1.37-.87-2.1-.97-2.2-.19-.17-.47-.18-.64-.01Z"
              ></path>
            </svg>