   <svg
              xmlns="http://www.w3.org/2000/svg"
              id="Layer_1"
              data-name="Layer 1"
              viewBox="0 0 32 32"
            >
              <defs>
                <style>
                  .cls-1 {
                    fill: #086ad8;
                    stroke-width: 0px;
                  }
                </style>
              </defs>
              <path
                class="cls-1"
                d="M15.5.21c-.76.15-1.46.71-1.81,1.47-.17.37-.2.48-.2.97,0,.7.12,1.08.53,1.62l.3.4-.33.22c-.92.61-1.45,1.59-1.55,2.85l-.04.58h3.11v1.05l-.29.04c-2.01.24-3.79,1.04-5.05,2.24-.19.18-.38.33-.43.33-.19,0-.4-.33-.48-.74-.15-.82-.68-1.67-1.32-2.14-.2-.14-.39-.27-.43-.28-.04-.01.04-.18.21-.4.81-1.04.78-2.35-.07-3.31-.72-.82-1.94-1.06-2.95-.59-.4.18-.89.63-1.11.99-.54.93-.42,2.2.3,2.99l.22.25-.35.24c-.94.65-1.47,1.63-1.55,2.86l-.04.58h6.47l.22.16c.12.09.21.19.21.21s-.13.24-.28.47c-.76,1.13-1.23,2.46-1.42,3.98l-.04.32h-1.07v-.54c-.02-1.12-.62-1.96-1.69-2.37-.51-.2-1.39-.16-1.88.07-1.59.78-1.98,2.79-.78,4.06.11.11.18.21.16.22-.01.01-.17.11-.35.22-.89.56-1.46,1.61-1.54,2.82l-.04.59h7.14v-.46c0-1.12-.46-2.09-1.32-2.81-.18-.14-.33-.26-.35-.26s-.07-.02-.12-.06c-.07-.04-.05-.1.09-.28l.18-.22h1.57l.04.32c.19,1.57.67,2.88,1.47,4.06l.35.51-.27.25c-.14.14-.33.3-.42.37l-.16.12-.36-.19c-1.51-.78-3.31.07-3.65,1.73-.07.36-.08.54-.03.86.08.49.36,1.08.65,1.36l.22.21-.42.3c-.51.36-.89.81-1.15,1.39-.25.53-.34.95-.34,1.55v.46h7.14l-.04-.61c-.04-.69-.2-1.23-.51-1.74-.24-.39-.89-1.04-1.2-1.2l-.2-.11.19-.19c.28-.3.49-.67.61-1.07.14-.49.1-1.25-.09-1.67l-.14-.31.42-.38.42-.38.25.21c.6.52,1.35,1.03,1.95,1.35.63.32,1.56.67,2.03.76.48.09.45-.11.45,2.4,0,2.23,0,2.25.14,2.46.24.37.58.49,1.34.49s1.1-.12,1.34-.49c.14-.21.14-.23.14-2.46,0-1.29.02-2.26.06-2.28.03-.02.32-.11.65-.19,1.31-.34,2.54-1.02,3.72-2.04l.25-.21.42.38.42.38-.14.31c-.19.42-.23,1.18-.09,1.67.12.4.33.77.6,1.06l.18.19-.3.2c-.44.29-1,.92-1.23,1.39-.24.5-.38,1.1-.38,1.67v.42h7.12v-.48c0-1.18-.56-2.26-1.49-2.92l-.42-.3.22-.21c.29-.28.57-.87.65-1.36.05-.32.04-.5-.03-.86-.35-1.66-2.14-2.51-3.65-1.73l-.36.19-.16-.12c-.09-.07-.28-.24-.42-.37l-.27-.25.35-.51c.8-1.17,1.28-2.5,1.47-4.06l.04-.32h1.57l.17.22c.1.12.17.22.15.24,0,0-.14.09-.28.18-.41.26-.92.82-1.15,1.28-.28.54-.41,1.06-.41,1.67v.5h7.14l-.04-.59c-.08-1.22-.61-2.2-1.54-2.82l-.37-.25.23-.25c1.13-1.26.71-3.28-.84-4-.49-.24-1.37-.27-1.87-.07-1.07.4-1.67,1.24-1.68,2.37v.54h-1.08l-.04-.36c-.17-1.41-.68-2.83-1.42-3.94-.15-.24-.28-.45-.28-.47s.09-.12.21-.21l.22-.16h6.47l-.04-.58c-.09-1.24-.61-2.2-1.55-2.85l-.35-.24.22-.25c.73-.81.84-2.11.27-3.03-.91-1.42-2.93-1.6-4.03-.36-.85.95-.87,2.27-.06,3.31.17.23.26.38.21.4-.2.07-.84.6-1.06.89-.33.45-.61,1.07-.7,1.54-.07.4-.28.74-.46.74-.04,0-.22-.13-.4-.3-1.41-1.28-3.07-2.03-5.09-2.27l-.3-.04v-1.05h3.11l-.04-.58c-.1-1.27-.63-2.25-1.55-2.85l-.33-.22.3-.4c.41-.54.53-.92.53-1.62,0-.5-.02-.6-.2-.97-.37-.78-1.05-1.32-1.87-1.47-.38-.07-.54-.07-.94,0ZM16.68,1.32c.56.28.84.75.84,1.39,0,.67-.3,1.11-.9,1.39-.76.34-1.67,0-2.02-.76-.61-1.3.81-2.67,2.08-2.02ZM6.21,5.32c.81.24,1.29,1.13,1.03,1.93-.22.66-.79,1.07-1.49,1.07-1.53,0-2.1-2.04-.79-2.83.46-.28.74-.32,1.24-.17ZM26.97,5.45c.86.47,1.06,1.6.41,2.34-.32.37-.68.53-1.14.53-.92,0-1.66-.79-1.55-1.68.13-1.1,1.31-1.72,2.29-1.18ZM15.5,6.3v1.02h-2.03l.06-.24c.14-.5.54-1.07,1-1.39.17-.12.82-.41.93-.42.02,0,.04.46.04,1.02ZM17.1,5.5c.6.27,1.16.91,1.36,1.55l.08.28h-2.04v-2.05l.14.04c.07.02.28.11.46.19ZM5.29,10.39v1.02h-2.05l.04-.14c.17-.56.59-1.16,1.04-1.48.17-.12.82-.41.93-.42.02,0,.04.46.04,1.02ZM7.14,9.74c.54.35.98.95,1.09,1.47l.04.2h-2v-2.04l.28.09c.15.04.42.17.59.28ZM25.72,10.39v1.02h-1.99l.04-.2c.16-.82.97-1.58,1.94-1.84,0,0,.01.45.01,1.02ZM27.37,9.62c.61.29,1.15.95,1.36,1.65l.04.14h-2.05v-2.05l.14.04c.07.02.3.12.51.22ZM17.21,10.45c2.46.43,4.53,1.94,5.64,4.14,1.91,3.8.39,8.39-3.42,10.32-2.95,1.49-6.5.9-8.85-1.45-2.37-2.38-2.94-5.89-1.43-8.87,1.1-2.17,3.15-3.69,5.58-4.13.66-.12,1.81-.12,2.48,0ZM4.33,15.59c.27.11.63.45.79.74.19.35.19,1.02,0,1.37-.16.3-.51.63-.82.75-.32.14-.85.12-1.19-.02-.36-.16-.71-.51-.84-.86-.12-.32-.09-.95.06-1.23.38-.72,1.25-1.05,2-.74ZM28.91,15.62c.14.06.34.19.45.3.34.34.41.54.41,1.09s-.07.75-.41,1.09c-.41.41-1.15.56-1.67.35-.3-.12-.66-.45-.82-.75-.19-.35-.19-1.02,0-1.37.4-.76,1.24-1.05,2.03-.71ZM5.13,19.98c.36.21.69.59.91,1.06.3.61.33.59-.81.59h-.99v-2.04l.31.12c.17.06.43.19.58.28ZM27.77,20.61v1.02h-.99c-1.13,0-1.1.02-.83-.56.3-.64.73-1.05,1.43-1.34.2-.08.37-.15.38-.15,0,0,.01.46.01,1.02ZM3.24,20.64v.99H1.19l.04-.14c.12-.39.37-.82.66-1.13.33-.35.95-.71,1.21-.71h.14v.99ZM29.42,19.83c.61.3,1.15.96,1.35,1.65l.04.14h-2.05v-1.98h.14c.08,0,.32.09.52.19ZM7.44,24.81c.56.29.89.81.89,1.42,0,.46-.17.82-.53,1.14-.92.81-2.33.27-2.54-.96-.11-.69.4-1.46,1.15-1.7.22-.07.82-.02,1.03.09ZM25.88,24.84c.57.29.95,1,.86,1.58-.2,1.23-1.62,1.77-2.54.96-.55-.48-.69-1.2-.35-1.85.39-.77,1.29-1.07,2.03-.69ZM16.53,28.78v2.04h-1.05l-.02-1.98c0-1.09,0-2.02.02-2.06.02-.06.17-.07.54-.06l.51.02v2.04ZM6.28,29.84v1.02h-.99c-1.15,0-1.11.03-.81-.59.19-.4.51-.81.83-1.03.17-.12.82-.41.93-.42.02,0,.04.46.04,1.02ZM7.94,29.04c.61.29,1.2,1.02,1.35,1.65l.04.17-1.01-.02-1.02-.02-.02-1.02-.02-1.01.17.04c.1.02.32.11.5.2ZM24.72,29.82l-.02,1.01-1,.02c-.65.01-1.01,0-1.01-.05,0-.14.24-.68.43-.95.11-.15.34-.4.52-.53.3-.23.84-.49,1.02-.5.06,0,.07.22.06,1ZM26.32,29.03c.46.21.91.65,1.16,1.16.35.69.38.66-.77.66h-.99v-2.05l.14.04c.07.02.28.11.46.19Z"
              ></path>
              <path
                class="cls-1"
                d="M14.87,11.5c-2.61.5-4.6,2.35-5.29,4.9-.15.54-.17.72-.17,1.63s.02,1.09.17,1.64c.51,1.92,1.78,3.46,3.54,4.32,3.76,1.82,8.21-.24,9.3-4.32.15-.55.17-.73.17-1.64s-.02-1.09-.17-1.63c-.64-2.37-2.45-4.19-4.78-4.79-.79-.2-2.04-.25-2.77-.12ZM16.99,12.49c2.17.4,3.91,2.03,4.5,4.22.16.61.16,2.06,0,2.65-.59,2.19-2.3,3.81-4.47,4.22-.71.14-1.78.1-2.45-.09-1.98-.53-3.5-2.06-4.04-4.06-.19-.67-.19-2.07-.02-2.72.69-2.56,2.88-4.29,5.46-4.3.31,0,.77.04,1.02.08Z"
              ></path>
              <path
                class="cls-1"
                d="M12.41,18.04v2.54h.99v-2.05l.54.02.54.02.02,1v1.01h.94v-5.08h-.93v1s-.03,1.01-.03,1.01l-.54.02-.54.02v-2.05h-.99v2.54Z"
              ></path>
              <path
                class="cls-1"
                d="M16.56,18.04v2.54h.93v-1.01s.03-1,.03-1l.32-.02c.63-.04.76.18.76,1.29v.74h1l-.02-.92c-.02-.85-.04-.95-.2-1.27l-.17-.35.16-.33c.41-.84.02-1.81-.84-2.11-.18-.07-.52-.09-1.11-.09h-.86v2.54ZM18.38,16.63c.24.2.24.57,0,.77-.14.12-.22.14-.52.12l-.35-.02-.02-.43c-.01-.24,0-.46.01-.51.02-.06.14-.08.37-.08.27,0,.38.03.5.14Z"
              ></path>
            </svg>