   <svg
              xmlns="http://www.w3.org/2000/svg"
              id="Layer_1"
              data-name="Layer 1"
              viewBox="0 0 32 32"
            >
              <defs>
                <style>
                  .cls-1 {
                    fill: #086ad8;
                    stroke-width: 0px;
                  }
                </style>
              </defs>
              <path
                class="cls-1"
                d="M9.32.36c-.8.1-1.56.36-2.28.77-1.41.81-2.26,2.12-2.47,3.77-.06.46-.08.52-.27.67-.11.08-.46.39-.77.7C.89,8.83-.15,12.71.85,16.26c.83,2.95,2.96,5.39,5.74,6.58.31.13.57.25.58.25.01.01-.18.38-.43.81l-.46.8-2.36.02c-2.16.02-2.39.03-2.59.14-.31.17-.56.41-.72.71-.13.25-.14.32-.14,2.7s0,2.46.14,2.71c.08.14.24.35.36.46.46.41.2.39,7.61.39s7.18.03,7.67-.47c.45-.44.47-.61.47-3.09s-.03-2.61-.39-3.03c-.11-.12-.32-.29-.46-.36-.25-.13-.34-.14-2.63-.17l-2.37-.03-.27-.48-.27-.48.92-.08c1.48-.12,2.54-.4,3.74-.97.36-.17.67-.31.7-.31s2.1,2.04,4.6,4.54c5.13,5.13,4.76,4.82,5.83,4.87.48.02.66,0,.99-.11.76-.25,1.4-.89,1.65-1.65.11-.32.13-.51.11-.99-.05-1.06.26-.69-4.87-5.83-2.49-2.5-4.54-4.57-4.54-4.6s.13-.31.29-.64c1.58-3.28,1.32-7.06-.71-10.13-.41-.6-1.58-1.88-2.1-2.26-.18-.14-.21-.2-.27-.66-.31-2.47-2.16-4.22-4.84-4.55-.63-.08-1.88-.07-2.51,0ZM12.5,1.47c.57.16,1.48.64,1.86.96.39.34.71.77.97,1.29.49.99.51,2.28.06,3.29l-.15.32-.05-.57c-.08-.94-.25-1.39-.83-2.24-.34-.52-.55-.69-.77-.63-.08.02-.36.2-.62.39-.62.47-1.14.75-1.69.93-.38.11-.66.15-1.84.18-1.06.04-1.47.07-1.69.15-.71.26-1.34.9-1.56,1.58l-.11.32-.18-.35c-.27-.53-.39-1.17-.36-1.9.1-1.89,1.42-3.33,3.47-3.79.61-.14,2.94-.1,3.49.05ZM13.9,5.66l.25.5.02,1.62c.02,1.3,0,1.69-.08,2.01-.32,1.28-1.34,2.3-2.61,2.63-1.88.48-3.85-.71-4.33-2.63-.07-.3-.1-.64-.08-1.37.02-.95.03-.98.21-1.29.12-.19.31-.38.5-.5l.31-.19,1.34-.04c1.04-.03,1.46-.07,1.85-.17.57-.15,1.53-.59,1.91-.88.14-.11.3-.19.35-.18s.21.24.35.52ZM4.73,6.8c.05.27.42,1.05.67,1.42l.2.29-.3.33c-1.27,1.4-1.95,3.49-1.75,5.38.18,1.69.87,3.16,2.04,4.33,2.75,2.75,7.23,2.79,9.99.06,2.19-2.16,2.75-5.37,1.43-8.12-.32-.67-.65-1.18-1.08-1.65l-.3-.33.25-.39c.26-.4.64-1.25.64-1.42,0-.06.03-.1.06-.1.12,0,1.28,1.29,1.62,1.79.4.6.92,1.65,1.13,2.28.43,1.33.56,3,.33,4.36-.23,1.32-.76,2.63-1.49,3.72-.42.62-1.72,1.92-2.33,2.34-.6.41-1.62.92-2.26,1.13-.96.32-1.53.42-2.72.46l-1.12.04-.28-.5c-.49-.88-.59-.99-.88-.99s-.39.12-.71.69c-.13.25-.17.27-.34.24-.1-.02-.56-.22-1.02-.45-2.53-1.26-4.28-3.54-4.9-6.39-.17-.77-.17-2.79,0-3.56.38-1.77,1.18-3.27,2.38-4.52.33-.35.62-.63.65-.63s.07.1.09.21ZM6.59,11.05c.35.66.88,1.25,1.48,1.65l.52.35v1.6l-.52.08c-1.02.15-1.94.56-2.61,1.15-.17.15-.33.25-.36.22-.08-.09-.31-.72-.43-1.17-.17-.63-.15-2.27.03-2.96.18-.64.69-1.67,1.07-2.16l.3-.38.15.58c.08.32.25.78.38,1.03ZM15.88,10.41c.64,1.08.88,2.1.83,3.37-.02.44-.08.97-.13,1.18-.11.43-.35,1.05-.43,1.14-.03.03-.18-.06-.36-.22-.67-.59-1.59-1-2.61-1.15l-.53-.08v-1.62l.37-.23c1.03-.64,1.76-1.67,2.03-2.86l.11-.5.22.25c.11.13.34.46.49.72ZM10.63,13.49c.26,0,.6-.03.75-.05l.27-.04v1.39l-.27.11c-.36.14-1.15.14-1.5,0l-.27-.11v-1.39l.27.04c.15.03.48.05.74.05ZM9.3,15.71c.88.38,1.78.38,2.65,0l.34-.15.69.12c.39.07.85.18,1.04.25.44.17,1.02.55,1.34.88l.25.26-.2.24c-.38.47-1.15,1.16-1.65,1.45-1.1.64-2.11.89-3.39.84-1.23-.05-2.17-.36-3.18-1.04-.4-.27-1.53-1.36-1.53-1.48,0-.03.13-.18.31-.34.35-.35.92-.71,1.36-.85.24-.08,1.15-.27,1.58-.34.03,0,.2.06.38.15ZM23.29,23.81c2.99,3,4.4,4.46,4.48,4.63.38.83.04,1.83-.76,2.23-.35.17-1.11.18-1.46,0-.17-.08-1.72-1.58-4.62-4.48-2.41-2.4-4.38-4.38-4.38-4.4s.14-.13.3-.25c.49-.37,1.3-1.16,1.67-1.65.19-.25.36-.45.38-.45s2,1.97,4.4,4.37ZM9.42,24.09c.44.78.87,1.46.95,1.53.14.11.3.12,2.6.12h2.44l.15.16.16.15v4.47l-.16.15-.15.16H1.78l-.15-.16-.16-.15v-4.47l.16-.15.15-.16h2.44c2.35,0,2.45,0,2.61-.13.09-.07.52-.76.95-1.53.43-.77.8-1.39.81-1.39s.39.63.83,1.4Z"
              ></path>
              <path
                class="cls-1"
                d="M3.5,27.27v.51h10.18v-1.02H3.5v.51Z"
              ></path>
              <path
                class="cls-1"
                d="M2.48,29.3v.51h12.21v-1.02H2.48v.51Z"
              ></path>
              <path
                class="cls-1"
                d="M25.05.47c-.06.06-.41.74-.79,1.49l-.69,1.39h-2.91l-.18.18c-.1.1-.18.25-.18.33,0,.1.36.51,1.25,1.41l1.25,1.26-.5,1.75c-.48,1.69-.5,1.75-.39,1.91.15.22.38.32.57.24.08-.04.76-.59,1.53-1.22l1.38-1.16,1.37,1.15c.76.64,1.44,1.18,1.52,1.22.19.09.48-.05.59-.28.07-.15.03-.35-.41-1.89l-.49-1.72,1.26-1.27c1.17-1.18,1.26-1.29,1.22-1.45-.03-.1-.11-.24-.2-.32-.15-.13-.2-.14-1.6-.14h-1.44l-.69-1.39c-.38-.76-.73-1.43-.79-1.49s-.18-.11-.33-.11-.27.04-.33.11ZM25.96,3.04c.3.6.61,1.15.69,1.21.13.11.27.12,1.14.12h.99l-.94.94c-.52.52-.94.98-.94,1.02,0,.04.13.53.29,1.09s.28,1.03.27,1.04-.43-.32-.94-.74c-.5-.41-.98-.78-1.06-.8-.2-.05-.27,0-1.27.83-.48.41-.9.73-.91.71-.01-.02.11-.49.27-1.05s.29-1.06.29-1.09c0-.04-.42-.5-.94-1.02l-.94-.94h.99c.87,0,1.01-.01,1.14-.12.08-.06.39-.61.69-1.21.29-.6.55-1.09.57-1.09s.28.49.57,1.09Z"
              ></path>
              <path
                class="cls-1"
                d="M26.58,10.64c-.06.06-.41.74-.79,1.49l-.69,1.39h-2.91l-.18.18c-.1.1-.18.25-.18.33,0,.1.36.51,1.25,1.41l1.25,1.26-.5,1.75c-.48,1.69-.5,1.75-.39,1.91.15.22.38.32.57.24.08-.04.76-.59,1.53-1.22l1.38-1.16,1.37,1.15c.76.64,1.44,1.18,1.52,1.22.19.09.48-.05.59-.28.07-.15.03-.35-.41-1.89l-.49-1.72,1.25-1.26c.89-.9,1.25-1.3,1.25-1.41,0-.08-.08-.23-.18-.33l-.18-.18h-2.91l-.69-1.39c-.38-.76-.73-1.43-.79-1.49s-.18-.11-.33-.11-.27.04-.33.11ZM27.48,13.21c.3.6.61,1.15.69,1.21.13.11.27.12,1.14.12h.99l-.94.94c-.52.52-.94.98-.94,1.02,0,.04.13.53.29,1.09s.28,1.03.27,1.04-.43-.32-.94-.74c-.5-.41-.98-.78-1.06-.8-.2-.05-.27,0-1.27.83-.48.41-.89.73-.9.71s.11-.48.27-1.05c.18-.65.28-1.08.25-1.16-.03-.08-.45-.54-.95-1.02l-.9-.88h.99c.88,0,1.01-.01,1.15-.12.08-.06.39-.61.69-1.21.29-.6.55-1.09.57-1.09s.28.49.57,1.09Z"
              ></path>
            </svg>