<svg id="Layer_1" data-name="Layer 1" xmlns="http://www.w3.org/2000/svg" viewBox="0 0 422.83 178.61"><defs><style>.cls-1{fill:#0196c4;}.cls-2{fill:#004e7d;}</style></defs><path class="cls-1" d="M77.81,271.19a17.75,17.75,0,0,1-.1,2.08,6.2,6.2,0,0,1-.31,1.38,2,2,0,0,1-.53.78,1.08,1.08,0,0,1-.69.26H62.56v43.82a1.15,1.15,0,0,1-.27.75,1.94,1.94,0,0,1-.91.55,9.17,9.17,0,0,1-1.7.34,29.65,29.65,0,0,1-5.33,0,9.17,9.17,0,0,1-1.7-.34,1.84,1.84,0,0,1-.91-.55,1.15,1.15,0,0,1-.27-.75V275.69H37.85a1.05,1.05,0,0,1-.71-.26,2.06,2.06,0,0,1-.5-.78,5.63,5.63,0,0,1-.32-1.38,17.52,17.52,0,0,1-.11-2.08,18.69,18.69,0,0,1,.11-2.15,5.71,5.71,0,0,1,.32-1.4,1.82,1.82,0,0,1,.5-.76,1.14,1.14,0,0,1,.71-.23H76.18a1.17,1.17,0,0,1,.69.23,1.76,1.76,0,0,1,.53.76,6.27,6.27,0,0,1,.31,1.4,18.93,18.93,0,0,1,.1,2.15" transform="translate(-36.21 -143.38)"/><path class="cls-1" d="M109,319.72a1.13,1.13,0,0,1-.41.92,2.81,2.81,0,0,1-1.33.48,17.57,17.57,0,0,1-2.67.15,17.79,17.79,0,0,1-2.75-.15,2.25,2.25,0,0,1-1.22-.48,1.19,1.19,0,0,1-.36-.92v-3A16.91,16.91,0,0,1,95,320.6,15.23,15.23,0,0,1,88.45,322a18.35,18.35,0,0,1-5.49-.78,12.41,12.41,0,0,1-4.33-2.31,10.33,10.33,0,0,1-2.83-3.8,13,13,0,0,1-1-5.3,11.92,11.92,0,0,1,1.28-5.69,10.37,10.37,0,0,1,3.83-4,19.12,19.12,0,0,1,6.32-2.34A45.48,45.48,0,0,1,95,297h3.65v-2.27a11.84,11.84,0,0,0-.35-3.09,5.08,5.08,0,0,0-1.18-2.2,4.78,4.78,0,0,0-2.19-1.31,11.57,11.57,0,0,0-3.38-.42,17.41,17.41,0,0,0-4.72.59,27.35,27.35,0,0,0-3.68,1.3c-1.07.48-2,.91-2.67,1.3a3.82,3.82,0,0,1-1.74.6,1.24,1.24,0,0,1-.82-.3,2.07,2.07,0,0,1-.59-.84A6.21,6.21,0,0,1,77,289a11.88,11.88,0,0,1-.12-1.76,8,8,0,0,1,.21-2.06,3.16,3.16,0,0,1,.8-1.37,7.9,7.9,0,0,1,2-1.34,25.82,25.82,0,0,1,3.45-1.37,34.1,34.1,0,0,1,4.31-1,29.09,29.09,0,0,1,4.81-.39,28.5,28.5,0,0,1,7.54.86,12.7,12.7,0,0,1,5.15,2.65,10.33,10.33,0,0,1,2.94,4.6,21.35,21.35,0,0,1,.92,6.68ZM98.65,303.67h-4a21.13,21.13,0,0,0-4.37.38,8.28,8.28,0,0,0-2.94,1.13A4.65,4.65,0,0,0,85.65,307a5.48,5.48,0,0,0-.52,2.45,4.7,4.7,0,0,0,1.49,3.7,5.93,5.93,0,0,0,4.14,1.35,7.69,7.69,0,0,0,4.09-1.14,16.88,16.88,0,0,0,3.8-3.31Z" transform="translate(-36.21 -143.38)"/><path class="cls-1" d="M130.17,319.59a1.2,1.2,0,0,1-.25.74,1.8,1.8,0,0,1-.87.52,7.33,7.33,0,0,1-1.61.32c-.68.07-1.53.1-2.57.1s-1.89,0-2.56-.1a7.57,7.57,0,0,1-1.62-.32,1.81,1.81,0,0,1-.86-.52,1.14,1.14,0,0,1-.25-.74V264.34a1.24,1.24,0,0,1,.25-.76,2,2,0,0,1,.86-.57,7.36,7.36,0,0,1,1.62-.35,25.37,25.37,0,0,1,5.13,0,7.13,7.13,0,0,1,1.61.35,2,2,0,0,1,.87.57,1.3,1.3,0,0,1,.25.76Z" transform="translate(-36.21 -143.38)"/><path class="cls-1" d="M175.34,299.76a4.11,4.11,0,0,1-.86,2.86,3.13,3.13,0,0,1-2.38.92H149.29a15.87,15.87,0,0,0,.56,4.35,8.3,8.3,0,0,0,1.81,3.32,7.88,7.88,0,0,0,3.19,2.08,13.65,13.65,0,0,0,4.69.71,26.9,26.9,0,0,0,4.87-.39,34.16,34.16,0,0,0,3.64-.89c1-.32,1.86-.61,2.54-.88a4.63,4.63,0,0,1,1.64-.4,1.22,1.22,0,0,1,.63.15,1.13,1.13,0,0,1,.42.52,3.58,3.58,0,0,1,.23,1.07c0,.47.06,1.05.06,1.75s0,1.14,0,1.57a9.4,9.4,0,0,1-.13,1.12,2.75,2.75,0,0,1-.25.78,3,3,0,0,1-.44.6,4.85,4.85,0,0,1-1.49.8,22.64,22.64,0,0,1-3.11,1,44,44,0,0,1-4.33.84,35.63,35.63,0,0,1-5.21.36,27.62,27.62,0,0,1-8.76-1.26,15.65,15.65,0,0,1-6.28-3.82,16,16,0,0,1-3.76-6.48,30.3,30.3,0,0,1-1.24-9.16,29.08,29.08,0,0,1,1.3-9,19,19,0,0,1,3.78-6.81,16.31,16.31,0,0,1,6-4.26,20.79,20.79,0,0,1,8-1.47,21.11,21.11,0,0,1,8,1.38,14.63,14.63,0,0,1,5.48,3.85,15.48,15.48,0,0,1,3.15,5.82,25.43,25.43,0,0,1,1,7.31Zm-10.26-3a10.85,10.85,0,0,0-1.78-7c-1.28-1.69-3.24-2.54-5.9-2.54a7.7,7.7,0,0,0-3.51.75,7.05,7.05,0,0,0-2.48,2,9.36,9.36,0,0,0-1.51,3,14.33,14.33,0,0,0-.61,3.71Z" transform="translate(-36.21 -143.38)"/><path class="cls-1" d="M219.83,319.59a1.14,1.14,0,0,1-.25.74,1.78,1.78,0,0,1-.84.52,7.08,7.08,0,0,1-1.62.32c-.68.07-1.53.1-2.54.1s-1.9,0-2.58-.1a7.08,7.08,0,0,1-1.62-.32,1.78,1.78,0,0,1-.84-.52,1.14,1.14,0,0,1-.25-.74V298.21a18.36,18.36,0,0,0-.4-4.29,8.36,8.36,0,0,0-1.16-2.67,5.06,5.06,0,0,0-1.95-1.72,6,6,0,0,0-2.8-.61,7,7,0,0,0-4.07,1.47,21.9,21.9,0,0,0-4.29,4.29v24.91a1.14,1.14,0,0,1-.25.74,1.76,1.76,0,0,1-.86.52,7.57,7.57,0,0,1-1.62.32c-.67.07-1.53.1-2.56.1s-1.89,0-2.56-.1a7.44,7.44,0,0,1-1.62-.32,1.76,1.76,0,0,1-.86-.52,1.14,1.14,0,0,1-.25-.74V282.11a1.19,1.19,0,0,1,.21-.73,1.5,1.5,0,0,1,.75-.53,5.51,5.51,0,0,1,1.41-.31,18.13,18.13,0,0,1,2.16-.11,19.32,19.32,0,0,1,2.23.11,4.64,4.64,0,0,1,1.36.31,1.53,1.53,0,0,1,.7.53,1.26,1.26,0,0,1,.21.73v4.33a23.78,23.78,0,0,1,6.32-5,14.31,14.31,0,0,1,6.7-1.68,14.83,14.83,0,0,1,6.45,1.26,11.34,11.34,0,0,1,4.25,3.42,14.09,14.09,0,0,1,2.33,5.06,29.94,29.94,0,0,1,.71,7Z" transform="translate(-36.21 -143.38)"/><path class="cls-1" d="M251.6,315.9a13.41,13.41,0,0,1-.23,2.83,3.18,3.18,0,0,1-.61,1.39,3.22,3.22,0,0,1-1.11.71,10.25,10.25,0,0,1-1.72.55,20.92,20.92,0,0,1-2.15.36,22.58,22.58,0,0,1-2.33.12,17.1,17.1,0,0,1-5.46-.79,9.17,9.17,0,0,1-3.83-2.47,10.23,10.23,0,0,1-2.22-4.17,21.93,21.93,0,0,1-.72-6V289.25h-4.5c-.53,0-.93-.33-1.21-1a9.23,9.23,0,0,1-.42-3.3,17.16,17.16,0,0,1,.1-2.06,5.08,5.08,0,0,1,.32-1.33,1.53,1.53,0,0,1,.52-.69,1.3,1.3,0,0,1,.74-.2h4.45v-8.37a1.3,1.3,0,0,1,.23-.75,1.68,1.68,0,0,1,.84-.57,6.49,6.49,0,0,1,1.64-.34c.69-.07,1.54-.1,2.55-.1s1.89,0,2.58.1a6.22,6.22,0,0,1,1.62.34,1.83,1.83,0,0,1,.84.57,1.25,1.25,0,0,1,.25.75v8.37h8.15a1.33,1.33,0,0,1,.74.2,1.61,1.61,0,0,1,.52.69,5.08,5.08,0,0,1,.32,1.33,19.53,19.53,0,0,1,.1,2.06,9.23,9.23,0,0,1-.42,3.3,1.34,1.34,0,0,1-1.22,1h-8.19v17.61a8.7,8.7,0,0,0,1,4.6,3.73,3.73,0,0,0,3.44,1.53,7,7,0,0,0,1.51-.14,9.22,9.22,0,0,0,1.2-.34c.35-.12.64-.23.88-.34a1.91,1.91,0,0,1,.65-.14,1,1,0,0,1,.49.14,1,1,0,0,1,.35.6,7.92,7.92,0,0,1,.24,1.19,16.61,16.61,0,0,1,.1,1.94" transform="translate(-36.21 -143.38)"/><path class="cls-2" d="M323.24,319.51a1.3,1.3,0,0,1-.23.75,1.6,1.6,0,0,1-.84.55,8.84,8.84,0,0,1-1.62.34,22.28,22.28,0,0,1-2.56.12,21.88,21.88,0,0,1-2.52-.12,8.23,8.23,0,0,1-1.6-.34,1.74,1.74,0,0,1-.84-.55,1.19,1.19,0,0,1-.25-.75V275.27h-.09l-15.75,44.2a2.07,2.07,0,0,1-.55.9,2.59,2.59,0,0,1-1,.57,6.75,6.75,0,0,1-1.66.27q-1,.06-2.43.06a24.12,24.12,0,0,1-2.44-.1,7,7,0,0,1-1.66-.34,3,3,0,0,1-1-.57,1.69,1.69,0,0,1-.51-.79l-15.2-44.2h-.09v44.24a1.3,1.3,0,0,1-.23.75,1.63,1.63,0,0,1-.86.55,9.22,9.22,0,0,1-1.62.34,26.73,26.73,0,0,1-5.06,0,8.84,8.84,0,0,1-1.62-.34,1.6,1.6,0,0,1-.84-.55,1.3,1.3,0,0,1-.23-.75V271.06a4.43,4.43,0,0,1,1.13-3.27,4.1,4.1,0,0,1,3-1.14h7.23a15.3,15.3,0,0,1,3.32.31A6.59,6.59,0,0,1,277,268a6,6,0,0,1,1.68,1.94,13.91,13.91,0,0,1,1.18,3l11.76,32.4h.17L304,273a18,18,0,0,1,1.2-3,7.08,7.08,0,0,1,1.51-2,5,5,0,0,1,2-1.08,10.68,10.68,0,0,1,2.73-.31h7.44a5.89,5.89,0,0,1,1.95.29,3.36,3.36,0,0,1,1.35.87,3.83,3.83,0,0,1,.8,1.38,6,6,0,0,1,.27,1.87Z" transform="translate(-36.21 -143.38)"/><path class="cls-2" d="M345.85,269.42c0,2.13-.44,3.6-1.31,4.41s-2.48,1.22-4.83,1.22-4-.39-4.81-1.17-1.24-2.2-1.24-4.25.43-3.6,1.29-4.43,2.47-1.24,4.84-1.24,4,.4,4.8,1.2,1.26,2.22,1.26,4.26m-.8,50.17a1.2,1.2,0,0,1-.25.74,1.8,1.8,0,0,1-.87.52,7.33,7.33,0,0,1-1.61.32c-.68.07-1.53.1-2.57.1s-1.89,0-2.56-.1a7.57,7.57,0,0,1-1.62-.32,1.81,1.81,0,0,1-.86-.52,1.14,1.14,0,0,1-.25-.74V282.2a1.14,1.14,0,0,1,.25-.74,2.09,2.09,0,0,1,.86-.55,7.36,7.36,0,0,1,1.62-.35,25.37,25.37,0,0,1,5.13,0,7.13,7.13,0,0,1,1.61.35,2.07,2.07,0,0,1,.87.55,1.2,1.2,0,0,1,.25.74Z" transform="translate(-36.21 -143.38)"/><path class="cls-2" d="M384,313.62q0,1.1-.06,1.83a12.47,12.47,0,0,1-.17,1.24,3.61,3.61,0,0,1-.26.82,2.78,2.78,0,0,1-.65.8,9.55,9.55,0,0,1-1.72,1.18,17.85,17.85,0,0,1-2.77,1.24,22.64,22.64,0,0,1-3.39.88,21,21,0,0,1-3.75.34,20.31,20.31,0,0,1-7.67-1.35,14.29,14.29,0,0,1-5.61-4,17.37,17.37,0,0,1-3.43-6.41,29.61,29.61,0,0,1-1.15-8.65,30.25,30.25,0,0,1,1.4-9.73,18.72,18.72,0,0,1,3.93-6.79,15.78,15.78,0,0,1,6-4,21.2,21.2,0,0,1,7.56-1.3,19,19,0,0,1,3.3.29,20.3,20.3,0,0,1,3,.8A17.34,17.34,0,0,1,381,282a7.68,7.68,0,0,1,1.57,1.09,4.7,4.7,0,0,1,.66.78,2.82,2.82,0,0,1,.29.81,10.27,10.27,0,0,1,.17,1.25c0,.49.06,1.08.06,1.78a9.73,9.73,0,0,1-.42,3.43c-.28.65-.64,1-1.09,1a2.55,2.55,0,0,1-1.52-.59c-.53-.39-1.16-.82-1.89-1.3a13.69,13.69,0,0,0-2.6-1.3,10,10,0,0,0-3.62-.59,7.2,7.2,0,0,0-6.3,3.17q-2.18,3.18-2.18,9.31a23.46,23.46,0,0,0,.54,5.33,11.55,11.55,0,0,0,1.62,3.87,6.75,6.75,0,0,0,2.69,2.33,8.56,8.56,0,0,0,3.76.78,9.7,9.7,0,0,0,3.76-.65,15,15,0,0,0,2.75-1.45c.79-.53,1.45-1,2-1.45a2.29,2.29,0,0,1,1.34-.65.92.92,0,0,1,.63.21,1.49,1.49,0,0,1,.4.78,8.66,8.66,0,0,1,.23,1.45c.06.59.09,1.34.09,2.26" transform="translate(-36.21 -143.38)"/><path class="cls-2" d="M415.68,285.6c0,1,0,1.83-.08,2.48a8.24,8.24,0,0,1-.25,1.51,1.54,1.54,0,0,1-.44.76,1.14,1.14,0,0,1-.7.21,2.27,2.27,0,0,1-.76-.15l-.94-.31c-.35-.12-.74-.22-1.16-.32a6,6,0,0,0-1.38-.15,4.67,4.67,0,0,0-1.77.36,7.59,7.59,0,0,0-1.83,1.11,13.6,13.6,0,0,0-2,2,33.45,33.45,0,0,0-2.21,3.11v23.36a1.14,1.14,0,0,1-.25.74,1.84,1.84,0,0,1-.86.52,8.24,8.24,0,0,1-1.62.32c-.67.07-1.52.1-2.56.1s-1.89,0-2.56-.1a7.94,7.94,0,0,1-1.62-.32,1.84,1.84,0,0,1-.86-.52,1.14,1.14,0,0,1-.25-.74V282.11a1.25,1.25,0,0,1,.2-.73,1.58,1.58,0,0,1,.76-.53,5.51,5.51,0,0,1,1.41-.31,18.13,18.13,0,0,1,2.16-.11,19.32,19.32,0,0,1,2.23.11,4.64,4.64,0,0,1,1.36.31,1.53,1.53,0,0,1,.7.53,1.26,1.26,0,0,1,.21.73v4.67a29.77,29.77,0,0,1,2.77-3.47,15.37,15.37,0,0,1,2.48-2.16,7.63,7.63,0,0,1,2.35-1.12,9.11,9.11,0,0,1,2.36-.31q.54,0,1.17.06a10.77,10.77,0,0,1,1.31.21,7.15,7.15,0,0,1,1.17.34,2.09,2.09,0,0,1,.74.4,1.23,1.23,0,0,1,.33.46,3,3,0,0,1,.19.69,9.63,9.63,0,0,1,.13,1.32c0,.59,0,1.39,0,2.4" transform="translate(-36.21 -143.38)"/><path class="cls-2" d="M459,300.48a28.59,28.59,0,0,1-1.26,8.73A18.33,18.33,0,0,1,454,316a17,17,0,0,1-6.43,4.41,24,24,0,0,1-9,1.56,24.89,24.89,0,0,1-8.7-1.39,15.67,15.67,0,0,1-6.14-4,16.78,16.78,0,0,1-3.61-6.51,30.49,30.49,0,0,1-1.18-8.83,28.26,28.26,0,0,1,1.29-8.76,18.35,18.35,0,0,1,3.84-6.81,17.16,17.16,0,0,1,6.41-4.39,24.07,24.07,0,0,1,9-1.55,25.23,25.23,0,0,1,8.74,1.36,15.34,15.34,0,0,1,6.11,4,16.86,16.86,0,0,1,3.6,6.52,30.65,30.65,0,0,1,1.17,8.87m-10.88.41a27.77,27.77,0,0,0-.44-5.1,11.93,11.93,0,0,0-1.49-4.06,7.6,7.6,0,0,0-2.8-2.69,9,9,0,0,0-4.39-1,9.28,9.28,0,0,0-4.11.86,7.36,7.36,0,0,0-2.91,2.52,12.3,12.3,0,0,0-1.7,4,23.11,23.11,0,0,0-.56,5.32,26.06,26.06,0,0,0,.46,5.1,12.59,12.59,0,0,0,1.49,4.06,7.12,7.12,0,0,0,2.8,2.67,10.54,10.54,0,0,0,8.52.08,7.47,7.47,0,0,0,2.91-2.5,11.69,11.69,0,0,0,1.68-4,23.74,23.74,0,0,0,.54-5.32" transform="translate(-36.21 -143.38)"/><path class="cls-2" d="M301.55,246.2,262,207.32a7.43,7.43,0,0,0-10.52.1L213.2,246.36l-11.5-11.29,45.15-46a13.7,13.7,0,0,1,19.34-.18l46.64,45.79Z" transform="translate(-36.21 -143.38)"/><path class="cls-1" d="M186.19,228.62,175,217.08l71.61-69.78a13.84,13.84,0,0,1,19-.28l74,67.92-10.89,11.87-67.24-61.72a7.45,7.45,0,0,0-10.22.15Z" transform="translate(-36.21 -143.38)"/></svg>