<svg xmlns="http://www.w3.org/2000/svg" width="245" height="75" viewBox="0 0 245 75"><g id="logo_web" data-name="logo web" transform="translate(-60 -326)"><g id="img-Logo" transform="translate(-479.944 218.167)"><g id="Group_1193" data-name="Group 1193" transform="translate(547.944 115.333)"><g id="Group_1170" data-name="Group 1170" transform="translate(27.023 26.475)"><g id="Group_1167" data-name="Group 1167"><path id="Path_898" data-name="Path 898" d="M652.682,215.71l2.23,3.523-2.23,3.527-2.232-3.527Z" transform="translate(-650.45 -215.71)" fill="#b06"></path></g><g id="Group_1168" data-name="Group 1168" transform="translate(2.232 3.523)"><path id="Path_899" data-name="Path 899" d="M659.069,225.719h1.617l-2.23,3.527H656.84Z" transform="translate(-656.84 -225.719)" fill="#8c0d43"></path></g><g id="Group_1169" data-name="Group 1169" transform="translate(2.232)"><path id="Path_900" data-name="Path 900" d="M656.84,215.71h1.617l2.23,3.523h-1.617Z" transform="translate(-656.84 -215.71)" fill="#6a0a33"></path></g></g><g id="Group_1171" data-name="Group 1171" transform="translate(5.168 30)"><path id="Path_901" data-name="Path 901" d="M586.625,225.726h2L569.1,245.911h-2Z" transform="translate(-567.101 -225.726)" fill="#67b986"></path></g><g id="Group_1173" data-name="Group 1173" transform="translate(5.168 9.815)"><g id="Group_1172" data-name="Group 1172"><path id="Path_902" data-name="Path 902" d="M567.1,151.45h2l19.524,20.185h-2Z" transform="translate(-567.101 -151.45)" fill="#292172"></path></g></g><g id="Group_1174" data-name="Group 1174" transform="translate(0 9.815)"><path id="Path_903" data-name="Path 903" d="M553.112,151.45l19.524,20.185L553.112,191.82l-5.168-5.343L562.3,171.635l-14.356-14.842Z" transform="translate(-547.944 -151.45)" fill="#249176"></path></g><g id="Group_1175" data-name="Group 1175" transform="translate(14.708 45.159)"><path id="Path_904" data-name="Path 904" d="M616.822,281.509l1,1.033-13.357,13.807h-2Z" transform="translate(-602.466 -281.509)" fill="#67b986"></path></g><g id="Group_1177" data-name="Group 1177" transform="translate(29.064 34.474)"><g id="Group_1176" data-name="Group 1176"><path id="Path_905" data-name="Path 905" d="M655.682,242.187h2L677.2,262.371h-2Z" transform="translate(-655.682 -242.187)" fill="#292172"></path></g></g><g id="Group_1178" data-name="Group 1178" transform="translate(9.541 34.474)"><path id="Path_906" data-name="Path 906" d="M602.833,242.187l19.522,20.183-5.168,5.343-14.354-14.84-14.356,14.84-5.168-5.343Z" transform="translate(-583.309 -242.187)" fill="#249176"></path></g><g id="Group_1179" data-name="Group 1179" transform="translate(43.419 54.657)"><path id="Path_907" data-name="Path 907" d="M714.059,316.457h2l-5.168,5.343h-2Z" transform="translate(-708.891 -316.457)" fill="#67b986"></path></g><g id="Group_1186" data-name="Group 1186" transform="translate(9.541 0)"><g id="Group_1181" data-name="Group 1181" transform="translate(5.168)"><g id="Group_1180" data-name="Group 1180"><path id="Path_908" data-name="Path 908" d="M602.466,115.333h2l13.358,13.807-1,1.033Z" transform="translate(-602.466 -115.333)" fill="#292172"></path></g></g><g id="Group_1183" data-name="Group 1183" transform="translate(33.878)"><g id="Group_1182" data-name="Group 1182"><path id="Path_909" data-name="Path 909" d="M708.891,115.333h2l5.168,5.343h-2Z" transform="translate(-708.891 -115.333)" fill="#292172"></path></g></g><g id="Group_1184" data-name="Group 1184"><path id="Path_910" data-name="Path 910" d="M617.188,115.333l5.168,5.343-19.522,20.183-19.524-20.183,5.168-5.343,14.356,14.84,1-1.032Z" transform="translate(-583.309 -115.333)" fill="#249176"></path></g><g id="Group_1185" data-name="Group 1185" transform="translate(19.524 5.343)"><path id="Path_911" data-name="Path 911" d="M675.2,134.994h2l-19.522,20.183h-2Z" transform="translate(-655.682 -134.994)" fill="#67b986"></path></g></g><g id="Group_1192" data-name="Group 1192" transform="translate(33.31 9.815)"><g id="Group_1187" data-name="Group 1187" transform="translate(19.524 35.027)"><path id="Path_912" data-name="Path 912" d="M748.961,280.341h2l-5.168,5.343h-2Z" transform="translate(-743.793 -280.341)" fill="#67b986"></path></g><g id="Group_1188" data-name="Group 1188" transform="translate(10.336 20.185)"><path id="Path_913" data-name="Path 913" d="M709.735,225.726h2l14.356,14.842h-2Z" transform="translate(-709.735 -225.726)" fill="#0d5b57"></path></g><g id="Group_1189" data-name="Group 1189" transform="translate(0 0)"><path id="Path_914" data-name="Path 914" d="M690.945,151.45l5.168,5.343-14.356,14.842,14.356,14.842-5.168,5.343-19.524-20.185Z" transform="translate(-671.421 -151.45)" fill="#249176"></path></g><g id="Group_1190" data-name="Group 1190" transform="translate(10.336 5.343)"><path id="Path_915" data-name="Path 915" d="M724.091,171.11h2l-14.356,14.842h-2Z" transform="translate(-709.735 -171.11)" fill="#67b986"></path></g><g id="Group_1191" data-name="Group 1191" transform="translate(19.524)"><path id="Path_916" data-name="Path 916" d="M743.793,151.45h2l5.168,5.343h-2Z" transform="translate(-743.793 -151.45)" fill="#0d5b57"></path></g></g></g><g id="Group_1194" data-name="Group 1194" transform="translate(619.256 136.323)"><path id="Path_917" data-name="Path 917" d="M814.138,210.374h-3.781v-17.8h3.781Zm4.168-9.776,6.406,9.776h-4.425l-5.994-9.493,5.917-8.309h4.039Z" transform="translate(-810.356 -192.571)" fill="#040505"></path><path id="Path_918" data-name="Path 918" d="M874.639,206.391c-4.114,0-6.56,2.881-6.56,7.229,0,4.527,2.47,7.229,6.536,7.229,4.09,0,6.533-2.905,6.533-7.229C881.148,209.092,878.7,206.391,874.639,206.391Zm-.024,11.843c-1.6,0-2.894-2.041-2.894-4.56s1.3-4.555,2.894-4.555,2.894,2.038,2.894,4.555S876.213,218.234,874.615,218.234Z" transform="translate(-852.392 -202.635)" fill="#040505"></path><path id="Path_919" data-name="Path 919" d="M975.566,208.039l-1.595,2.161a4.145,4.145,0,0,0-2.676-.978c-1.826,0-2.907,1.312-2.907,4.476s1.157,4.219,2.881,4.219a4.609,4.609,0,0,0,2.7-.952l1.595,2.29a6.838,6.838,0,0,1-4.476,1.6c-4.065,0-6.56-2.778-6.56-7.126,0-4.322,2.521-7.332,6.509-7.332A6.549,6.549,0,0,1,975.566,208.039Z" transform="translate(-923.431 -202.636)" fill="#040505"></path><path id="Path_920" data-name="Path 920" d="M1017.705,206.391c-4.117,0-6.56,2.881-6.56,7.229,0,4.527,2.47,7.229,6.533,7.229,4.093,0,6.536-2.905,6.536-7.229C1024.214,209.092,1021.771,206.391,1017.705,206.391Zm-.027,11.843c-1.6,0-2.894-2.041-2.894-4.56s1.3-4.555,2.894-4.555,2.894,2.038,2.894,4.555S1019.276,218.234,1017.678,218.234Z" transform="translate(-958.179 -202.635)" fill="#040505"></path><path id="Path_921" data-name="Path 921" d="M1087.4,210.506v9.93h-3.653V210.308c0-1.183-.628-1.5-1.338-1.379a3.183,3.183,0,0,0-2.341,3.4v8.11h-3.653V210.308c0-1.124-.631-1.531-1.338-1.391a3.118,3.118,0,0,0-2.367,3.325v8.194h-3.653V206.8h3.5v1.828a3.823,3.823,0,0,1,3.911-2.239,3.314,3.314,0,0,1,3.267,2.246,4.149,4.149,0,0,1,4.065-2.246C1085.931,206.39,1087.4,207.933,1087.4,210.506Z" transform="translate(-1000.351 -202.634)" fill="#040505"></path><path id="Path_922" data-name="Path 922" d="M1312.823,212.327v8.11h-3.653V210.309c0-1.124-.62-1.446-1.338-1.391a3.42,3.42,0,0,0-2.91,3.325v8.194h-3.653V206.8h3.5v1.828a5.014,5.014,0,0,1,4.454-2.239,3.314,3.314,0,0,1,3.267,2.246C1312.84,209.519,1312.823,210.24,1312.823,212.327Z" transform="translate(-1169.46 -202.635)" fill="#040505"></path><path id="Path_923" data-name="Path 923" d="M1157,206.391a3.922,3.922,0,0,0-3.859,2.24V206.8h-3.5V226.1h3.655v-6.715a4.3,4.3,0,0,0,3.394,1.465c3.4,0,5.4-3.087,5.4-7.253C1162.091,209.2,1160.045,206.391,1157,206.391Zm-.907,11.734c-1.6,0-2.622-2.464-2.622-4.711s1.024-4.445,2.622-4.445,2.622,2.2,2.622,4.445S1157.688,218.125,1156.091,218.125Z" transform="translate(-1059.036 -202.635)" fill="#040505"></path><path id="Path_924" data-name="Path 924" d="M1212.072,209.731a6.45,6.45,0,0,1-3.551,1.055c-2.83-.026-4.27-1.647-4.27-4.682v-6.791h-2.032v-2.573h2.032v-2.984l3.653-1.183v4.168h4.178l-.02,2.573H1207.9v6.715c0,1.338.437,1.852,1.364,1.852a3.2,3.2,0,0,0,1.543-.463Z" transform="translate(-1097.328 -192.571)" fill="#040505"></path><path id="Path_925" data-name="Path 925" d="M1255.857,214.727h-8.515c.257,2.624,1.492,3.4,3.242,3.4a5.52,5.52,0,0,0,3.319-1.183L1255.42,219a8.039,8.039,0,0,1-5.171,1.853c-4.373,0-6.663-2.881-6.663-7.152,0-4.116,2.212-7.306,6.2-7.306,3.859,0,6.148,2.573,6.148,6.92C1255.935,213.775,1255.883,214.341,1255.857,214.727Zm-3.55-2.444c0-2.058-.694-3.4-2.444-3.4-1.441,0-2.315.952-2.521,3.55h4.965Z" transform="translate(-1127.453 -202.636)" fill="#040505"></path><path id="Path_926" data-name="Path 926" d="M1366.6,210.506l-6.406,8.207h6.2l-.031,2.83H1356v-2.624l6.406-8.207h-5.865v-2.8H1366.6Z" transform="translate(-1209.314 -203.739)" fill="#040505"></path><path id="Path_927" data-name="Path 927" d="M936.178,207.592l-1.457,2.2a2.474,2.474,0,0,0-1.827-.751c-1.45-.049-2.933,1.094-2.933,3.41V220.5h-3.653V206.87h3.5V208.7a3.57,3.57,0,0,1,3.55-2.213A4.138,4.138,0,0,1,936.178,207.592Z" transform="translate(-894.797 -202.702)" fill="#040505"></path></g></g><rect id="Rectangle_1856" data-name="Rectangle 1856" width="245" height="75" transform="translate(60 326)" fill="none"></rect></g></svg>