<svg width="692" height="166" viewBox="0 0 692 166" fill="none" xmlns="http://www.w3.org/2000/svg">
<path d="M553.33 17.18C535.33 19.77 525.46 24.71 521.2 33.41C519.69 36.49 519.59 36.98 519.59 42.07C519.59 46.76 519.74 47.74 520.76 49.89C525.46 59.33 535.19 62.75 562.87 64.56C576.17 65.39 579.87 65.98 583.01 67.56C585.75 68.97 586.83 70.73 586.83 73.91C586.83 75.97 586.63 76.41 584.92 78.02C581.64 81.15 578.52 81.69 564.33 81.69C555.19 81.69 551.03 81.44 546.73 80.76C537.29 79.29 529.08 77.09 523.5 74.55C522.18 73.91 520.67 73.28 520.23 73.03C519.4 72.69 519.35 73.23 519.35 80.17V87.7L521.6 88.78C533.97 94.55 554.21 97.58 574.16 96.5C589.37 95.72 599.64 92.5 606 86.43C608.403 84.159 610.195 81.3199 611.212 78.1743C612.229 75.0287 612.438 71.6777 611.82 68.43C610.06 58.35 602.57 52.48 588.29 49.94C583.16 49.06 580.23 48.77 568.49 48.18C552.06 47.3 547.61 46.42 545.36 43.54C544.698 42.5879 544.334 41.4599 544.317 40.3003C544.299 39.1406 544.627 38.002 545.26 37.03C548.1 32.39 561.79 30.48 578.66 32.34C589.52 33.51 599.84 36.05 605.46 38.94C606.154 39.3009 606.872 39.6117 607.61 39.87C607.859 37.4151 607.939 34.9459 607.85 32.48V25.15L604.68 23.68C600.13 21.63 593.97 19.97 585.85 18.55C579.85 17.47 576.95 17.28 566.78 17.13C560.18 17 554.16 17.08 553.33 17.18ZM453.58 17.18C435.58 19.77 425.7 24.76 421.45 33.41C419.93 36.49 419.83 36.98 419.83 42.07C419.83 47.16 419.93 47.64 421.3 50.28C424.77 57.28 432.89 61.34 446.53 63.1C449.61 63.49 457.1 64.1 463.21 64.51C476.21 65.39 480.13 65.98 483.21 67.51C485.95 68.92 487.02 70.68 487.02 73.86C487.02 75.92 486.83 76.36 485.12 77.97C482.03 80.97 479.2 81.54 466.92 81.74C458.02 81.93 455.19 81.74 448.92 80.9C437.72 79.34 429.46 77.19 422.86 74.11L419.86 72.69L419.72 80.02C419.57 88.63 419.08 87.85 425.98 90.39C437.76 94.69 450.18 96.6 466.56 96.6C486.61 96.6 498.89 93.42 506.22 86.48C509.436 83.5627 511.488 79.5815 512 75.27C513.66 64.32 507.89 55.61 496.45 51.9C489.7 49.7 484.37 48.96 468.72 48.18C456.94 47.55 451.32 46.86 448.72 45.74C442.9 43.24 443.14 36.93 449.2 34.2C457.2 30.53 478.45 30.92 494.2 34.98C498.77 36.1474 503.222 37.7341 507.5 39.72C507.94 39.92 508.09 38.3 508.09 32.63V25.25L504.91 23.78C500.46 21.68 494.4 19.97 486.08 18.55C480.08 17.47 477.18 17.28 467.01 17.13C460.42 17 454.41 17.08 453.58 17.18ZM250.15 34C257.93 35.91 262.87 38.94 266.09 44C269.47 49.23 272.16 48.74 239.39 48.74C223.65 48.74 210.79 48.64 210.79 48.5C210.79 47.27 213.67 43.12 215.97 40.87C219.599 37.5536 224.062 35.2861 228.88 34.31C230.88 33.87 232.79 33.43 233.04 33.31C233.29 33.19 236.41 33.11 239.88 33.11C243.328 32.9584 246.78 33.2576 250.15 34ZM231.57 17.42C207.32 19.87 190.98 32.24 187.46 50.87C186.603 56.4007 186.803 62.0439 188.05 67.5C192.65 84.61 210.54 95.13 237.44 96.5C255.14 97.5 271.44 95.09 282.57 90L286.09 88.34V72.64L284.28 73.42C278.42 75.92 272.16 77.53 263.7 78.7C242.38 81.7 224.09 78.51 215.97 70.39C213.82 68.24 211.28 64.28 211.28 63.11C211.28 62.96 228.73 62.86 250.1 62.86C285.1 62.86 288.98 62.76 289.57 62.08C290.69 60.71 290.74 52.98 289.57 47.85C286 31.9 274.26 22 254.31 18.3C246.788 17.1427 239.161 16.8307 231.57 17.37V17.42ZM170.93 17.42C161.06 19.03 154.93 23.42 149.17 32.77C148.285 34.3593 147.282 35.8802 146.17 37.32C145.98 37.46 145.78 33.26 145.78 28.03V18.44H121.78L121.88 56.93L122.02 95.46H145.5L145.74 76.63L145.99 57.81L147.55 54.73C153.76 42.65 164.86 35.07 176.5 35.07C180.204 35.2136 183.879 35.7874 187.45 36.78C188.23 37.12 188.28 36.58 188.19 28.17L188.04 19.22L185.69 18.34C183 17.23 174.7 16.74 170.93 17.33V17.42ZM302.72 48.76V95.21L303.84 95.46C304.43 95.61 309.84 95.65 315.92 95.61L326.92 95.46L327.17 75.46L327.41 55.36L329.13 52.53C331.589 48.3198 334.855 44.636 338.74 41.6897C342.625 38.7434 347.053 36.5924 351.77 35.36C356.51 34.24 364.68 34.36 368.77 35.56C375.96 37.81 380.31 42.45 382.71 50.56C383.44 53.06 383.59 56.48 383.83 74.56L384.13 95.56H408.13V72.63C408.13 50.38 408.08 49.79 406.96 45.25C406.122 42.0716 404.997 38.9756 403.6 36C402.151 32.7181 400.036 29.7727 397.39 27.35C392.7 22.66 387.85 20.06 380.71 18.3C374.6 16.79 363.99 16.74 357.98 18.25C345.75 21.25 335.78 27.89 329.17 37.25C328.59 38.13 327.85 38.86 327.61 38.86C327.37 38.86 327.17 31.52 327.17 20.52V2.22H302.72V48.76ZM0.520028 32.97C0.520028 49.88 0.370016 70.67 0.180016 79.22C-0.0699838 92.33 -0.0199691 94.87 0.570031 95.22C1.35003 95.71 21.99 95.86 23.21 95.37C23.89 95.13 23.99 92.88 23.99 75.03C23.99 58.35 24.09 55.03 24.67 55.22C25.25 55.41 33.23 61.04 70.44 87.4C75.97 91.31 80.96 94.78 81.55 95.08C82.77 95.76 112.25 95.91 112.65 95.27C112.79 95.08 98.56 84.66 81.06 72.14C63.56 59.62 49.12 49.14 49.06 48.82C49 48.5 53.06 45.25 58.06 41.53C66.38 35.37 77.23 27.3 101.78 9.10999L110.68 2.51001L96.35 2.35999L82 2.22L75.15 7.45001C71.34 10.33 58.52 20.11 46.64 29.21C34.76 38.31 24.78 45.74 24.54 45.74C24.15 45.74 24 38.94 24 23.98V2.22H0.520028V32.97ZM640.68 2.57999C640.68 2.62999 640.62 4.79999 640.62 10.58V18.4H615.68V34.54L628.05 34.64L640.37 34.78L640.52 64.95L640.62 95.17L641.74 95.42C642.33 95.57 647.74 95.61 653.82 95.57L664.82 95.42L665.07 65.1L665.31 34.78L678.66 34.64L691.96 34.54V18.35H665.07V0.75C649.023 1.87 640.893 2.44999 640.68 2.48999V2.57999Z" fill="#821B48"/>
<path d="M396.26 151.11C397.521 151.177 398.769 150.825 399.81 150.11C400.751 149.381 401.448 148.384 401.81 147.25C402.255 145.902 402.472 144.489 402.45 143.07C402.474 141.647 402.254 140.229 401.8 138.88C401.431 137.758 400.734 136.772 399.8 136.05C398.807 135.346 397.606 134.994 396.39 135.05C395.101 134.994 393.83 135.37 392.78 136.12C391.814 136.865 391.082 137.872 390.67 139.02C390.215 140.297 389.988 141.644 390 143C389.982 144.393 390.212 145.778 390.68 147.09C391.083 148.232 391.801 149.238 392.75 149.99C393.758 150.754 394.996 151.149 396.26 151.11V151.11ZM395.65 155.11C393.694 155.16 391.769 154.604 390.14 153.52C388.578 152.433 387.343 150.939 386.57 149.2C385.735 147.254 385.305 145.158 385.305 143.04C385.305 140.922 385.735 138.826 386.57 136.88C387.355 135.145 388.605 133.66 390.18 132.59C391.823 131.512 393.756 130.96 395.72 131.01C397.658 130.947 399.566 131.5 401.17 132.59C402.669 133.677 403.828 135.169 404.51 136.89C406.023 140.85 406.023 145.23 404.51 149.19C403.821 150.919 402.656 152.417 401.15 153.51C399.533 154.614 397.607 155.174 395.65 155.11V155.11ZM395.99 165.25C394.78 165.253 393.578 165.06 392.43 164.68C391.293 164.308 390.23 163.739 389.29 163C388.333 162.251 387.534 161.32 386.94 160.26L391.02 158.19C391.468 159.117 392.21 159.869 393.13 160.33C394.032 160.774 395.025 161.003 396.03 161C397.137 161.032 398.236 160.806 399.24 160.34C400.105 159.906 400.806 159.205 401.24 158.34C401.729 157.311 401.959 156.178 401.91 155.04V148.66H402.44V131.66H406.35V155.11C406.35 155.71 406.35 156.29 406.28 156.84C406.238 157.394 406.161 157.945 406.05 158.49C405.788 159.901 405.149 161.214 404.2 162.29C403.252 163.319 402.058 164.09 400.73 164.53C399.206 165.037 397.606 165.281 396 165.25H395.99ZM364.99 154.47H360.51V131.64H364.51V138.24H365L364.99 154.47ZM381.04 154.47H376.56V143.25C376.556 142.332 376.479 141.416 376.33 140.51C376.195 139.6 375.911 138.718 375.49 137.9C375.084 137.11 374.477 136.441 373.73 135.96C372.845 135.427 371.822 135.17 370.79 135.22C370.026 135.215 369.267 135.347 368.55 135.61C367.838 135.87 367.203 136.303 366.7 136.87C366.119 137.528 365.692 138.307 365.45 139.15C365.122 140.267 364.967 141.427 364.99 142.59L362.25 141.59C362.209 139.695 362.606 137.816 363.41 136.1C364.14 134.566 365.301 133.277 366.75 132.39C368.347 131.47 370.168 131.01 372.01 131.06C373.383 131.019 374.748 131.278 376.01 131.82C377.018 132.284 377.91 132.967 378.62 133.82C379.278 134.628 379.795 135.54 380.15 136.52C380.488 137.443 380.729 138.398 380.87 139.37C380.984 140.182 381.048 141 381.06 141.82L381.04 154.47ZM354.19 154.47H349.78V131.64H354.19V154.47ZM354.19 127.9H349.78V123.61H354.19V127.9ZM327.82 154.47H323.33V131.64H327.33V138.24H327.86L327.82 154.47ZM343.82 154.47H339.34V143.25C339.336 142.332 339.259 141.416 339.11 140.51C338.979 139.599 338.695 138.716 338.27 137.9C337.883 137.136 337.309 136.482 336.6 136C335.715 135.467 334.692 135.21 333.66 135.26C332.896 135.255 332.137 135.387 331.42 135.65C330.708 135.91 330.073 136.343 329.57 136.91C328.989 137.568 328.562 138.347 328.32 139.19C327.996 140.307 327.844 141.467 327.87 142.63L325.12 141.63C325.079 139.735 325.476 137.856 326.28 136.14C327.01 134.606 328.171 133.317 329.62 132.43C331.217 131.51 333.038 131.05 334.88 131.1C336.253 131.057 337.618 131.317 338.88 131.86C339.888 132.324 340.78 133.007 341.49 133.86C342.152 134.665 342.669 135.579 343.02 136.56C343.358 137.483 343.599 138.438 343.74 139.41C343.854 140.222 343.918 141.04 343.93 141.86L343.82 154.47ZM316.97 154.47H312.56V131.64H316.97V154.47ZM316.97 127.9H312.56V123.61H316.97V127.9ZM308.12 135.2H294.12V131.64H308.12V135.2ZM302.35 154.47H298V130.84C298 130.26 298 129.65 298.06 128.99C298.11 128.331 298.234 127.681 298.43 127.05C298.639 126.398 298.979 125.795 299.43 125.28C299.951 124.69 300.601 124.228 301.33 123.93C301.988 123.669 302.683 123.514 303.39 123.47C304.08 123.42 304.71 123.4 305.28 123.4H308.16V127H305.49C305.07 126.965 304.647 127.015 304.246 127.147C303.846 127.279 303.477 127.491 303.16 127.77C302.893 128.066 302.687 128.411 302.555 128.788C302.422 129.164 302.366 129.562 302.39 129.96L302.35 154.47ZM289 144.31H272.7V140.86H289V144.31ZM280.85 155.11C278.753 155.16 276.68 154.646 274.85 153.62C273.148 152.638 271.761 151.191 270.85 149.45C269.867 147.534 269.376 145.403 269.42 143.25C269.363 141.005 269.846 138.779 270.83 136.76C271.703 134.997 273.063 133.522 274.75 132.51C276.529 131.483 278.556 130.965 280.61 131.01C282.704 130.946 284.769 131.511 286.54 132.63C288.21 133.747 289.492 135.354 290.21 137.23C291.073 139.484 291.415 141.905 291.21 144.31H286.8V142.7C286.8 140.033 286.293 138.073 285.28 136.82C284.74 136.17 284.053 135.658 283.275 135.328C282.498 134.997 281.653 134.857 280.81 134.92C279.871 134.852 278.929 135.005 278.061 135.368C277.192 135.731 276.421 136.294 275.81 137.01C274.594 138.765 274.005 140.879 274.14 143.01C274.008 145.085 274.598 147.141 275.81 148.83C276.396 149.526 277.138 150.076 277.975 150.433C278.812 150.791 279.721 150.948 280.63 150.89C281.889 150.924 283.131 150.598 284.21 149.95C285.24 149.303 286.058 148.368 286.56 147.26L290.9 148.63C290.088 150.588 288.691 152.246 286.9 153.38C285.088 154.526 282.984 155.127 280.84 155.11H280.85ZM264.85 154.47H260.92V138.05H260.42V124H264.85V154.47ZM254.73 151.11C255.991 151.176 257.239 150.824 258.28 150.11C259.221 149.381 259.918 148.384 260.28 147.25C260.722 145.902 260.935 144.489 260.91 143.07C260.937 141.647 260.72 140.23 260.27 138.88C259.901 137.758 259.204 136.772 258.27 136.05C257.277 135.346 256.076 134.994 254.86 135.05C253.568 134.994 252.294 135.37 251.24 136.12C250.28 136.869 249.552 137.874 249.14 139.02C248.664 140.32 248.43 141.696 248.45 143.08C248.43 144.474 248.664 145.86 249.14 147.17C249.543 148.312 250.261 149.318 251.21 150.07C252.214 150.796 253.433 151.162 254.67 151.11H254.73ZM254.12 155.11C252.163 155.162 250.238 154.606 248.61 153.52C247.033 152.439 245.784 150.944 245 149.2C244.137 147.263 243.707 145.161 243.74 143.04C243.701 140.918 244.135 138.814 245.01 136.88C245.792 135.146 247.038 133.661 248.61 132.59C250.257 131.513 252.193 130.962 254.16 131.01C256.095 130.945 258.001 131.499 259.6 132.59C261.105 133.671 262.265 135.165 262.94 136.89C264.453 140.85 264.453 145.23 262.94 149.19C262.251 150.919 261.086 152.417 259.58 153.51C257.958 154.62 256.024 155.181 254.06 155.11H254.12ZM238.12 144.31H221.82V140.86H238.12V144.31ZM229.96 155.11C227.863 155.16 225.79 154.646 223.96 153.62C222.258 152.638 220.871 151.191 219.96 149.45C218.977 147.534 218.486 145.403 218.53 143.25C218.473 141.005 218.956 138.779 219.94 136.76C220.813 134.997 222.173 133.522 223.86 132.51C225.639 131.483 227.666 130.965 229.72 131.01C231.817 130.948 233.885 131.512 235.66 132.63C237.324 133.75 238.602 135.357 239.32 137.23C240.183 139.484 240.525 141.905 240.32 144.31H235.91V142.7C235.91 140.05 235.37 138.09 234.4 136.82C233.859 136.171 233.172 135.66 232.395 135.33C231.617 135 230.772 134.859 229.93 134.92C228.991 134.852 228.049 135.005 227.181 135.368C226.312 135.731 225.541 136.294 224.93 137.01C223.714 138.765 223.125 140.879 223.26 143.01C223.128 145.085 223.718 147.141 224.93 148.83C225.516 149.526 226.258 150.076 227.095 150.433C227.932 150.791 228.841 150.948 229.75 150.89C231.009 150.924 232.251 150.598 233.33 149.95C234.361 149.301 235.181 148.367 235.69 147.26L240.02 148.63C239.208 150.588 237.811 152.246 236.02 153.38C234.191 154.538 232.065 155.139 229.9 155.11H229.96ZM196.69 128.2V139.36H204.41C204.69 139.36 205 139.36 205.35 139.36C205.686 139.333 206.02 139.283 206.35 139.21C207.175 139.041 207.933 138.635 208.53 138.04C209.075 137.475 209.479 136.79 209.71 136.04C209.946 135.317 210.068 134.561 210.07 133.8C210.069 133.042 209.947 132.29 209.71 131.57C209.479 130.82 209.075 130.135 208.53 129.57C207.933 128.975 207.175 128.569 206.35 128.4C206.022 128.316 205.688 128.259 205.35 128.23C205 128.23 204.69 128.23 204.41 128.23L196.69 128.2ZM215.12 154.47H210.07L204.07 142.09L208.53 140.95L215.12 154.47ZM196.69 154.47H192.27V124H204.58H205.67C206.089 124.016 206.507 124.059 206.92 124.13C208.46 124.334 209.921 124.934 211.16 125.87C212.284 126.753 213.162 127.91 213.71 129.23C214.283 130.653 214.569 132.176 214.55 133.71C214.606 135.944 213.955 138.138 212.69 139.98C212.03 140.876 211.196 141.629 210.236 142.192C209.277 142.756 208.214 143.119 207.11 143.26L205.32 143.47H196.69V154.47ZM542.19 135.2H526.59V131.64H542.19V135.2ZM542.19 150.73V154.47C540.798 154.746 539.379 154.867 537.96 154.83C536.686 154.811 535.428 154.539 534.26 154.03C533.198 153.561 532.331 152.738 531.81 151.7C531.331 150.813 531.061 149.828 531.02 148.82C531.02 147.82 531.02 146.73 531.02 145.49V125.3H535.45V145.3C535.45 146.21 535.45 147.01 535.45 147.69C535.449 148.287 535.597 148.875 535.88 149.4C536.129 149.829 536.48 150.19 536.902 150.45C537.325 150.71 537.805 150.861 538.3 150.89C539.598 150.995 540.905 150.941 542.19 150.73V150.73ZM507.59 154.47H503.11V131.64H507.06V138.24H507.59V154.47ZM523.59 154.47H519.11V143.25C519.109 142.332 519.036 141.416 518.89 140.51C518.751 139.599 518.464 138.718 518.04 137.9C517.639 137.11 517.035 136.44 516.29 135.96C515.387 135.418 514.342 135.16 513.29 135.22C512.526 135.215 511.767 135.347 511.05 135.61C510.341 135.875 509.706 136.307 509.2 136.87C508.622 137.53 508.195 138.308 507.95 139.15C507.626 140.267 507.474 141.427 507.5 142.59L504.75 141.59C504.714 139.696 505.111 137.818 505.91 136.1C506.644 134.568 507.803 133.28 509.25 132.39C510.85 131.469 512.674 131.008 514.52 131.06C515.893 131.017 517.259 131.277 518.52 131.82C519.528 132.284 520.42 132.967 521.13 133.82C521.792 134.625 522.309 135.539 522.66 136.52C523.003 137.441 523.244 138.397 523.38 139.37C523.499 140.181 523.563 141 523.57 141.82L523.59 154.47ZM496.79 144.31H480.49V140.86H496.79V144.31ZM488.63 155.11C486.533 155.16 484.46 154.646 482.63 153.62C480.93 152.635 479.543 151.19 478.63 149.45C477.642 147.536 477.15 145.404 477.2 143.25C477.145 141.006 477.625 138.782 478.6 136.76C479.477 134.997 480.841 133.522 482.53 132.51C484.305 131.482 486.329 130.963 488.38 131.01C490.477 130.945 492.546 131.509 494.32 132.63C495.987 133.75 497.269 135.356 497.99 137.23C498.853 139.484 499.195 141.905 498.99 144.31H494.57V142.7C494.57 140.033 494.067 138.073 493.06 136.82C492.519 136.171 491.832 135.66 491.055 135.33C490.277 135 489.432 134.859 488.59 134.92C487.651 134.852 486.709 135.005 485.841 135.368C484.972 135.731 484.201 136.294 483.59 137.01C482.378 138.767 481.79 140.88 481.92 143.01C481.788 145.085 482.378 147.141 483.59 148.83C484.176 149.526 484.918 150.076 485.755 150.433C486.592 150.791 487.501 150.948 488.41 150.89C489.667 150.942 490.913 150.633 492 150C493.033 149.354 493.854 148.419 494.36 147.31L498.69 148.68C497.879 150.638 496.482 152.297 494.69 153.43C492.883 154.548 490.795 155.131 488.67 155.11H488.63ZM472.17 154.47H467.75V123.4H472.17V154.47ZM450.48 151.47C451.593 151.499 452.698 151.273 453.71 150.81C454.557 150.412 455.302 149.828 455.89 149.1C456.413 148.492 456.793 147.775 457 147C457.252 146.265 457.39 145.496 457.41 144.72C457.41 143.87 457.46 143.19 457.46 142.72L458.9 143.25L455.1 143.82C453.96 143.99 452.92 144.15 452 144.31C451.169 144.452 450.347 144.646 449.54 144.89C448.973 145.086 448.43 145.344 447.92 145.66C447.473 145.931 447.091 146.296 446.8 146.73C446.517 147.197 446.375 147.735 446.39 148.28C446.388 148.853 446.54 149.416 446.83 149.91C447.156 150.435 447.629 150.852 448.19 151.11C448.929 151.408 449.725 151.538 450.52 151.49L450.48 151.47ZM449.7 155.09C448.227 155.137 446.766 154.814 445.45 154.15C444.369 153.577 443.471 152.711 442.86 151.65C442.275 150.61 441.971 149.434 441.98 148.24C441.967 147.207 442.178 146.183 442.6 145.24C443.014 144.361 443.635 143.596 444.41 143.01C445.322 142.352 446.335 141.849 447.41 141.52C448.43 141.233 449.58 140.973 450.86 140.74C452.14 140.507 453.473 140.297 454.86 140.11L459.07 139.52L457.47 140.4C457.61 138.972 457.207 137.544 456.34 136.4C455.55 135.53 454.21 135.1 452.34 135.1C451.186 135.088 450.048 135.378 449.04 135.94C448.526 136.236 448.076 136.632 447.717 137.104C447.358 137.576 447.098 138.115 446.95 138.69L442.83 137.43C443.339 135.549 444.475 133.898 446.05 132.75C447.926 131.505 450.151 130.892 452.4 131C454.231 130.943 456.053 131.284 457.74 132C459.214 132.659 460.397 133.832 461.07 135.3C461.432 136.044 461.659 136.847 461.74 137.67C461.831 138.564 461.875 139.462 461.87 140.36V154.41H458V149.19L458.76 149.87C457.949 151.482 456.702 152.833 455.16 153.77C453.507 154.696 451.634 155.159 449.74 155.11L449.7 155.09ZM432.7 154.45H428.29V128.2H418.2V124H442.87V128.16H432.74L432.7 154.45ZM675.88 154.45H671.4V124H675.35V140.42H675.88V154.45ZM691.88 154.45H687.4V143.25C687.399 142.332 687.326 141.416 687.18 140.51C687.041 139.599 686.754 138.718 686.33 137.9C685.929 137.11 685.325 136.44 684.58 135.96C683.691 135.428 682.665 135.17 681.63 135.22C680.866 135.216 680.108 135.348 679.39 135.61C678.681 135.875 678.046 136.307 677.54 136.87C676.962 137.53 676.535 138.308 676.29 139.15C675.966 140.267 675.814 141.427 675.84 142.59L673.09 141.59C673.052 139.694 673.452 137.815 674.26 136.1C674.987 134.567 676.144 133.278 677.59 132.39C679.19 131.469 681.014 131.008 682.86 131.06C684.233 131.016 685.599 131.276 686.86 131.82C687.868 132.284 688.76 132.967 689.47 133.82C690.132 134.625 690.649 135.539 691 136.52C691.347 137.44 691.589 138.396 691.72 139.37C691.839 140.181 691.903 141 691.91 141.82L691.88 154.45ZM657.11 155.09C655 155.164 652.914 154.618 651.11 153.52C649.477 152.477 648.176 150.988 647.36 149.23C646.48 147.274 646.025 145.154 646.025 143.01C646.025 140.866 646.48 138.746 647.36 136.79C648.199 135.037 649.521 133.559 651.17 132.53C652.966 131.468 655.025 130.934 657.11 130.99C659.382 130.925 661.617 131.576 663.5 132.85C665.247 134.064 666.492 135.874 667 137.94L662.6 139.21C662.227 138.006 661.477 136.954 660.46 136.21C659.463 135.498 658.265 135.123 657.04 135.14C655.773 135.081 654.522 135.432 653.47 136.14C652.518 136.848 651.798 137.823 651.4 138.94C650.931 140.242 650.694 141.616 650.7 143C650.625 145.026 651.192 147.025 652.32 148.71C652.866 149.434 653.583 150.011 654.407 150.39C655.23 150.769 656.135 150.937 657.04 150.88C658.271 150.931 659.486 150.58 660.5 149.88C661.421 149.149 662.115 148.171 662.5 147.06L666.98 148.11C666.347 150.182 665.046 151.985 663.28 153.24C661.486 154.466 659.363 155.118 657.19 155.11L657.11 155.09ZM636 154.47H631.54V131.64H635.47V137.18L634.92 136.46C635.199 135.749 635.569 135.077 636.02 134.46C636.451 133.866 636.982 133.351 637.59 132.94C638.176 132.507 638.828 132.169 639.52 131.94C640.921 131.488 642.41 131.382 643.86 131.63V135.78C643.05 135.573 642.21 135.516 641.38 135.61C640.533 135.695 639.716 135.969 638.989 136.412C638.262 136.855 637.643 137.456 637.18 138.17C636.753 138.845 636.449 139.59 636.28 140.37C636.084 141.233 635.99 142.115 636 143V154.47ZM614.7 151.47C615.813 151.499 616.918 151.273 617.93 150.81C618.775 150.41 619.52 149.825 620.11 149.1C620.629 148.475 620.999 147.74 621.19 146.95C621.437 146.214 621.575 145.446 621.6 144.67C621.6 143.82 621.6 143.14 621.6 142.67L623.04 143.2L619.23 143.77C618.09 143.94 617.06 144.1 616.14 144.26C615.305 144.401 614.48 144.595 613.67 144.84C613.107 145.038 612.567 145.296 612.06 145.61C611.611 145.878 611.229 146.244 610.94 146.68C610.649 147.144 610.503 147.683 610.52 148.23C610.515 148.825 610.682 149.409 611.001 149.912C611.321 150.414 611.779 150.813 612.32 151.06C613.062 151.377 613.864 151.524 614.67 151.49L614.7 151.47ZM613.91 155.09C612.44 155.137 610.982 154.814 609.67 154.15C608.585 153.583 607.686 152.715 607.08 151.65C606.49 150.611 606.186 149.435 606.2 148.24C606.184 147.208 606.392 146.184 606.81 145.24C607.22 144.362 607.834 143.594 608.6 143C609.51 142.34 610.524 141.837 611.6 141.51C612.733 141.192 613.881 140.932 615.04 140.73C616.327 140.51 617.66 140.3 619.04 140.1L623.26 139.51L621.65 140.39C621.794 138.962 621.39 137.532 620.52 136.39C619.74 135.52 618.4 135.09 616.52 135.09C615.366 135.078 614.228 135.368 613.22 135.93C612.706 136.226 612.256 136.622 611.897 137.094C611.538 137.566 611.278 138.105 611.13 138.68L607 137.42C607.513 135.538 608.652 133.887 610.23 132.74C612.102 131.504 614.32 130.898 616.56 131.01C618.388 130.952 620.207 131.293 621.89 132.01C623.368 132.663 624.554 133.838 625.22 135.31C625.589 136.052 625.82 136.855 625.9 137.68C625.98 138.51 626.03 139.41 626.03 140.37V154.42H622.12V149.2L622.88 149.88C622.062 151.49 620.812 152.841 619.27 153.78C617.625 154.699 615.763 155.158 613.88 155.11L613.91 155.09ZM600.91 144.29H584.61V140.84H600.91V144.29ZM592.75 155.09C590.653 155.14 588.58 154.626 586.75 153.6C585.051 152.614 583.664 151.169 582.75 149.43C581.771 147.513 581.283 145.382 581.33 143.23C581.275 140.986 581.755 138.762 582.73 136.74C583.606 134.979 584.966 133.505 586.65 132.49C588.429 131.463 590.456 130.945 592.51 130.99C594.607 130.928 596.675 131.492 598.45 132.61C600.114 133.73 601.392 135.337 602.11 137.21C602.973 139.464 603.315 141.885 603.11 144.29H598.69V142.7C598.69 140.033 598.187 138.073 597.18 136.82C596.639 136.171 595.952 135.66 595.175 135.33C594.397 135 593.552 134.859 592.71 134.92C591.771 134.852 590.829 135.005 589.961 135.368C589.092 135.731 588.321 136.294 587.71 137.01C586.498 138.767 585.91 140.88 586.04 143.01C585.908 145.085 586.498 147.141 587.71 148.83C588.296 149.526 589.038 150.076 589.875 150.433C590.712 150.791 591.622 150.948 592.53 150.89C593.789 150.924 595.031 150.598 596.11 149.95C597.141 149.301 597.961 148.367 598.47 147.26L602.8 148.63C601.99 150.589 600.593 152.249 598.8 153.38C596.997 154.521 594.904 155.121 592.77 155.11L592.75 155.09ZM566.46 155.09C564.434 155.12 562.422 154.736 560.55 153.96C558.861 153.25 557.371 152.138 556.21 150.72C555.056 149.272 554.298 147.549 554.01 145.72L558.61 145.03C559.012 146.789 560.053 148.335 561.53 149.37C563.053 150.414 564.864 150.956 566.71 150.92C567.863 150.934 569.008 150.737 570.09 150.34C571.046 150.005 571.9 149.43 572.57 148.67C573.199 147.949 573.535 147.017 573.51 146.06C573.521 145.559 573.425 145.061 573.23 144.6C573.043 144.184 572.778 143.807 572.45 143.49C572.09 143.158 571.682 142.882 571.24 142.67C570.74 142.429 570.222 142.228 569.69 142.07L561.89 139.76C561.095 139.523 560.316 139.232 559.56 138.89C558.774 138.526 558.046 138.047 557.4 137.47C556.724 136.86 556.18 136.118 555.8 135.29C555.365 134.295 555.157 133.216 555.19 132.13C555.136 130.427 555.646 128.754 556.64 127.37C557.636 126.018 558.995 124.978 560.56 124.37C562.324 123.68 564.206 123.34 566.1 123.37C567.995 123.369 569.871 123.743 571.62 124.47C573.193 125.132 574.585 126.161 575.68 127.47C576.794 128.867 577.558 130.509 577.91 132.26L573.18 133.07C572.996 131.984 572.526 130.966 571.82 130.12C571.136 129.296 570.27 128.643 569.29 128.21C568.261 127.763 567.152 127.531 566.03 127.53C564.976 127.488 563.925 127.662 562.94 128.04C562.073 128.352 561.301 128.882 560.7 129.58C560.15 130.212 559.851 131.023 559.86 131.86C559.84 132.597 560.105 133.314 560.6 133.86C561.117 134.397 561.74 134.819 562.43 135.1C563.137 135.394 563.862 135.645 564.6 135.85L570.22 137.43C570.92 137.63 571.72 137.89 572.62 138.23C573.542 138.576 574.416 139.04 575.22 139.61C576.08 140.232 576.791 141.038 577.3 141.97C577.886 143.109 578.168 144.38 578.12 145.66C578.163 147.022 577.869 148.374 577.264 149.596C576.658 150.817 575.761 151.87 574.65 152.66C573.521 153.463 572.258 154.059 570.92 154.42C569.479 154.854 567.985 155.086 566.48 155.11L566.46 155.09Z" fill="#821B48"/>
<path d="M6.38005 143.59H0.0400391V123.4H6.38005H150.83H157.17V143.59H150.83H6.38005Z" fill="#821B48"/>
</svg>
